<?xml version="1.0" encoding="UTF-8"?>
<svg id="Layer_1" data-name="Layer 1" xmlns="http://www.w3.org/2000/svg" xmlns:xlink="http://www.w3.org/1999/xlink" viewBox="0 0 256 256">
  <defs>
    <clipPath id="clippath">
      <rect x="0" y="0" width="256" height="256" style="fill: none;"/>
    </clipPath>
    <clipPath id="clippath-1">
      <rect x="0" y="0" width="256" height="256" style="fill: none;"/>
    </clipPath>
  </defs>
  <g style="clip-path: url(#clippath);">
    <g style="clip-path: url(#clippath-1);">
      <path d="M204.8,256H51.2C22.92,256,0,233.08,0,204.8V51.2C0,22.92,22.92,0,51.2,0h153.6C233.08,0,256,22.92,256,51.2v153.6c0,28.28-22.92,51.2-51.2,51.2" style="fill: #fff;"/>
      <path d="M108.24,125.13l16.89-16.89c1.56-1.56,4.09-1.56,5.66,0l16.97,16.97c1.56,1.56,1.56,4.1,0,5.66l-16.89,16.89c-1.56,1.56-4.1,1.56-5.66,0l-16.97-16.97c-1.56-1.56-1.56-4.1,0-5.66" style="fill: #57b1ff;"/>
      <path d="M91.01,73.65l-51.49,51.49c-1.56,1.56-1.56,4.09,0,5.66l17.66,17.66c1.56,1.56,4.09,1.56,5.66,0l51.49-51.49c1.56-1.56,1.56-4.1,0-5.66l-17.66-17.66c-1.56-1.56-4.1-1.56-5.66,0" style="fill: #57b1ff;"/>
      <path d="M164.98,182.35l51.55-51.55c1.56-1.56,1.56-4.1,0-5.66l-17.66-17.66c-1.56-1.56-4.09-1.56-5.66,0l-51.55,51.55c-1.56,1.56-1.56,4.1,0,5.66l17.66,17.66c1.56,1.56,4.1,1.56,5.66,0" style="fill: #57b1ff;"/>
      <path d="M164.99,73.65l51.49,51.49c1.56,1.56,1.56,4.09,0,5.66l-17.66,17.66c-1.56,1.56-4.09,1.56-5.66,0l-51.49-51.49c-1.56-1.56-1.56-4.1,0-5.66l17.66-17.66c1.56-1.56,4.1-1.56,5.66,0" style="fill: #1b85ff;"/>
      <path d="M91.02,182.35l-51.55-51.55c-1.56-1.56-1.56-4.1,0-5.66l17.66-17.66c1.56-1.56,4.09-1.56,5.66,0l51.55,51.55c1.56,1.56,1.56,4.1,0,5.66l-17.66,17.66c-1.56,1.56-4.1,1.56-5.66,0" style="fill: #1b85ff;"/>
    </g>
  </g>
</svg>