<?xml version="1.0" encoding="UTF-8"?><svg id="Layer_1" xmlns="http://www.w3.org/2000/svg" xmlns:xlink="http://www.w3.org/1999/xlink" viewBox="0 0 910 256"><defs><style>.cls-1,.cls-2{fill:none;}.cls-2{stroke:#424d60;stroke-width:3.2px;}.cls-3{fill:#1b85ff;}.cls-4{fill:#424d60;}.cls-5{clip-path:url(#clippath-1);}.cls-6{clip-path:url(#clippath-3);}.cls-7{clip-path:url(#clippath-4);}.cls-8{clip-path:url(#clippath-2);}.cls-9{fill:#fff;}.cls-10{fill:#e9ebef;}.cls-11{fill:#57b1ff;}.cls-12{fill:#e9eaed;}.cls-13{fill:#93ccff;}.cls-14{clip-path:url(#clippath);}</style><clipPath id="clippath"><rect class="cls-1" x="0" y="0" width="256" height="256"/></clipPath><clipPath id="clippath-1"><rect class="cls-1" x="0" y="0" width="256" height="256"/></clipPath><clipPath id="clippath-2"><rect class="cls-1" x="0" y="0" width="256" height="256"/></clipPath><clipPath id="clippath-3"><rect class="cls-1" x="344.86" y="-34.21" width="1228.55" height="319.93"/></clipPath><clipPath id="clippath-4"><rect class="cls-1" x="344.86" y="-34.21" width="1228.55" height="319.93"/></clipPath></defs><g class="cls-14"><g class="cls-5"><rect class="cls-9" x=".75" y=".75" width="254.5" height="254.5" rx="50.25" ry="50.25"/><path class="cls-10" d="M205,1.5c27.29,0,49.5,22.21,49.5,49.5v154c0,27.29-22.21,49.5-49.5,49.5H51c-27.29,0-49.5-22.21-49.5-49.5V51C1.5,23.71,23.71,1.5,51,1.5h154ZM205,0H51C22.83,0,0,22.83,0,51v154C0,233.17,22.83,256,51,256h154c28.17,0,51-22.83,51-51V51C256,22.83,233.17,0,205,0"/></g><g class="cls-8"><rect class="cls-3" x="88" y="80" width="108" height="96" rx="4" ry="4"/><rect class="cls-13" x="184" y="132" width="24" height="44" rx="4" ry="4"/><rect class="cls-13" x="148" y="68" width="24" height="108" rx="4" ry="4"/><rect class="cls-13" x="112" y="104" width="24" height="72" rx="4" ry="4"/><rect class="cls-11" x="48" y="124" width="52" height="52" rx="4" ry="4"/></g></g><path class="cls-12" d="M205.14,3.97c26.04,0,47.23,21.19,47.23,47.23v153.6c0,26.04-21.19,47.23-47.23,47.23H51.54c-26.04,0-47.23-21.19-47.23-47.23V51.2C4.31,25.16,25.5,3.97,51.54,3.97h153.6M205.14,0H51.54C23.26,0,.34,22.92.34,51.2v153.6c0,28.28,22.92,51.2,51.2,51.2h153.6c28.28,0,51.2-22.92,51.2-51.2V51.2C256.34,22.92,233.42,0,205.14,0h0Z"/><g class="cls-6"><g class="cls-7"><path class="cls-4" d="M373.72,178.28c-9.46,0-16.69-2.02-21.5-6-4.88-4.05-7.36-10.58-7.36-19.4v-49.27c0-8.83,2.48-15.36,7.36-19.4,4.8-3.98,12.04-6,21.5-6,22.62,0,30.09.23,35.79.77,1.23.03,1.89,1.02,2.11,1.35.43.65.65,1.34.65,2.04v6.4c0,.95-.29,1.72-.85,2.28-.54.54-1.33.85-2.15.85h-35.42c-4.11,0-7.31.44-9.53,1.3-1.93.75-3.14,1.77-3.72,3.11-.61,1.42-.9,3.75-.9,7.3v16.19h47.05c1.15,0,2.08.39,2.92,1.24.84.84,1.24,1.77,1.24,2.92v4.86c0,1.15-.39,2.08-1.24,2.92-.84.84-1.77,1.24-2.92,1.24h-47.05v19.9c0,3.56.28,5.88.9,7.3.57,1.34,1.79,2.36,3.72,3.11,2.12.82,4.42,1.3,11.78,1.3h33.17c.83,0,1.62.31,2.16.85.56.56.85,1.33.85,2.28v6.53c0,.7-.22,1.39-.65,2.04-.22.33-.88,1.32-2.16,1.35-4.41.41-13.31.64-25.02.64h-10.72Z"/><path class="cls-4" d="M501.15,130.06v42.18c0,2.7-1.46,3.2-2.08,3.38-.32.1-13.36,2.98-34.52,2.98-25.17,0-44.58-14.37-44.58-40.16,0-2.4-.03-3.28-.03-19.2,0-33.47,25.89-41.2,46.06-41.2,18.18,0,24.6,1.55,31.46,2.59.65.1,1.24.29,1.73.56.37.2.69.45.96.73.55.58.87,1.34.87,2.23v6.43c0,.6-.19,2.42-2.37,2.82-.27.05-.58.08-.92.08,0,0-.53,0-.68-.02-1.25-.11-14.55-1.64-29.89-1.64-21.26,0-32.31,9.07-32.31,28.32v16.88c0,19.88,13.14,27.96,30.39,27.96,13.58,0,20.98-1.31,20.98-1.31v-24.53h-9.2c-1.86,0-4.15-1.36-4.15-3.66s-.03-2.41-.03-5.41,2.38-4.18,4.18-4.18h20.07c2.43,0,4.05,2.04,4.05,4.18"/><path class="cls-2" d="M593.68,131.63h-39.29v41.85c0,1.41-1.15,2.56-2.56,2.56h-6.53c-1.41,0-2.56-1.15-2.56-2.56v-69.62c0-17.02,9.34-23.8,27.26-23.8,7.55,0,19.58.26,24.96.77.77.13,1.28,1.02,1.28,1.79v6.4c0,.9-.51,1.54-1.41,1.54h-24.7c-13.57,0-15.74,3.58-15.74,13.31v17.79h39.29c1.41,0,2.56,1.15,2.56,2.56v4.86c0,1.41-1.15,2.56-2.56,2.56Z"/><path class="cls-2" d="M652.04,176.04h-5.89c-1.41,0-2.56-1.15-2.56-2.56v-2.82c-6.14,3.58-12.54,6.27-19.71,6.27-10.88,0-20.86-4.73-20.86-20.73v-1.54c0-13.82,8.06-20.73,30.84-20.73h9.47v-5.12c0-10.75-3.71-14.46-13.69-14.46-8.32,0-14.46.51-19.58,1.02h-.64c-1.15,0-2.3-.38-2.3-2.05v-4.48c0-1.41.9-2.17,2.69-2.43,5.25-.9,11.13-1.66,19.84-1.66,17.79,0,24.96,8.96,24.96,24.06v44.66c0,1.41-1.15,2.56-2.56,2.56ZM643.33,142h-9.47c-15.49,0-19.58,3.46-19.58,12.54v1.54c0,9.21,4.35,11.65,11.77,11.65,5.89,0,11.13-1.79,17.28-5.12v-20.6Z"/><path class="cls-2" d="M711.41,175.53c-4.22.77-9.98,1.41-16,1.41-17.4,0-27.26-12.29-27.26-31.1v-9.98c0-18.81,9.73-31.1,27.26-31.1,5.89,0,11.77.64,16,1.41,2.05.38,2.56,1.02,2.56,2.82v4.61c0,1.28-1.02,1.92-2.18,1.92h-.51c-5.63-.64-9.6-.9-15.87-.9-10.24,0-16,6.78-16,21.24v9.98c0,14.33,5.63,21.24,16,21.24,6.27,0,10.24-.26,15.87-.9h.51c1.15,0,2.18.64,2.18,1.92v4.61c0,1.66-.51,2.43-2.56,2.82Z"/><path class="cls-2" d="M735.86,94.39h-6.53c-1.41,0-2.56-1.15-2.56-2.56v-10.24c0-1.41,1.15-2.56,2.56-2.56h6.53c1.41,0,2.56,1.15,2.56,2.56v10.24c0,1.41-1.15,2.56-2.56,2.56ZM735.6,176.04h-6.14c-1.41,0-2.56-1.15-2.56-2.56v-65.27c0-1.41,1.15-2.56,2.56-2.56h6.14c1.41,0,2.56,1.15,2.56,2.56v65.27c0,1.41-1.15,2.56-2.56,2.56Z"/><path class="cls-2" d="M764.27,176.04h-6.65c-1.28,0-2.3-1.15-2.3-2.56v-91.25c0-1.28.9-2.43,2.3-2.43h6.65c1.28,0,2.3,1.02,2.3,2.43v91.25c0,1.28-.9,2.56-2.3,2.56Z"/><path class="cls-2" d="M792.55,94.39h-6.53c-1.41,0-2.56-1.15-2.56-2.56v-10.24c0-1.41,1.15-2.56,2.56-2.56h6.53c1.41,0,2.56,1.15,2.56,2.56v10.24c0,1.41-1.15,2.56-2.56,2.56ZM792.29,176.04h-6.14c-1.41,0-2.56-1.15-2.56-2.56v-65.27c0-1.41,1.15-2.56,2.56-2.56h6.14c1.41,0,2.56,1.15,2.56,2.56v65.27c0,1.41-1.15,2.56-2.56,2.56Z"/><path class="cls-2" d="M847.19,176.3c-2.56.38-5.89.64-8.32.64-11.77,0-17.4-3.07-17.4-17.15v-44.66l-12.41-1.41c-1.41-.13-2.43-.9-2.43-2.3v-3.46c0-1.41,1.02-2.3,2.43-2.3h12.41v-12.54c0-1.28.9-2.3,2.3-2.56l6.66-1.02h.38c1.02,0,1.92.9,1.92,2.18v13.95h13.82c1.41,0,2.56,1.15,2.56,2.56v4.35c0,1.41-1.15,2.56-2.56,2.56h-13.82v44.66c0,7.04,1.79,8.06,6.91,8.06h7.17c1.79,0,2.69.51,2.69,1.79v4.48c0,1.15-.64,1.92-2.3,2.18Z"/></g><path class="cls-4" d="M593.68,131.63h-39.29v41.85c0,1.41-1.15,2.56-2.56,2.56h-6.53c-1.41,0-2.56-1.15-2.56-2.56v-69.62c0-17.02,9.34-23.8,27.26-23.8,7.55,0,19.58.26,24.96.77.77.13,1.28,1.02,1.28,1.79v6.4c0,.9-.51,1.54-1.41,1.54h-24.7c-13.57,0-15.74,3.58-15.74,13.31v17.79h39.29c1.41,0,2.56,1.15,2.56,2.56v4.86c0,1.41-1.15,2.56-2.56,2.56Z"/><path class="cls-4" d="M652.04,176.04h-5.89c-1.41,0-2.56-1.15-2.56-2.56v-2.82c-6.14,3.58-12.54,6.27-19.71,6.27-10.88,0-20.86-4.73-20.86-20.73v-1.54c0-13.82,8.06-20.73,30.84-20.73h9.47v-5.12c0-10.75-3.71-14.46-13.69-14.46-8.32,0-14.46.51-19.58,1.02h-.64c-1.15,0-2.3-.38-2.3-2.05v-4.48c0-1.41.9-2.17,2.69-2.43,5.25-.9,11.13-1.66,19.84-1.66,17.79,0,24.96,8.96,24.96,24.06v44.66c0,1.41-1.15,2.56-2.56,2.56ZM643.33,142h-9.47c-15.49,0-19.58,3.46-19.58,12.54v1.54c0,9.21,4.35,11.65,11.77,11.65,5.89,0,11.13-1.79,17.28-5.12v-20.6Z"/><path class="cls-4" d="M711.41,175.53c-4.22.77-9.98,1.41-16,1.41-17.4,0-27.26-12.29-27.26-31.1v-9.98c0-18.81,9.73-31.1,27.26-31.1,5.89,0,11.77.64,16,1.41,2.05.38,2.56,1.02,2.56,2.82v4.61c0,1.28-1.02,1.92-2.18,1.92h-.51c-5.63-.64-9.6-.9-15.87-.9-10.24,0-16,6.78-16,21.24v9.98c0,14.33,5.63,21.24,16,21.24,6.27,0,10.24-.26,15.87-.9h.51c1.15,0,2.18.64,2.18,1.92v4.61c0,1.66-.51,2.43-2.56,2.82Z"/><path class="cls-4" d="M735.86,94.39h-6.53c-1.41,0-2.56-1.15-2.56-2.56v-10.24c0-1.41,1.15-2.56,2.56-2.56h6.53c1.41,0,2.56,1.15,2.56,2.56v10.24c0,1.41-1.15,2.56-2.56,2.56ZM735.6,176.04h-6.14c-1.41,0-2.56-1.15-2.56-2.56v-65.27c0-1.41,1.15-2.56,2.56-2.56h6.14c1.41,0,2.56,1.15,2.56,2.56v65.27c0,1.41-1.15,2.56-2.56,2.56Z"/><path class="cls-4" d="M764.27,176.04h-6.65c-1.28,0-2.3-1.15-2.3-2.56v-91.25c0-1.28.9-2.43,2.3-2.43h6.65c1.28,0,2.3,1.02,2.3,2.43v91.25c0,1.28-.9,2.56-2.3,2.56Z"/><path class="cls-4" d="M792.55,94.39h-6.53c-1.41,0-2.56-1.15-2.56-2.56v-10.24c0-1.41,1.15-2.56,2.56-2.56h6.53c1.41,0,2.56,1.15,2.56,2.56v10.24c0,1.41-1.15,2.56-2.56,2.56ZM792.29,176.04h-6.14c-1.41,0-2.56-1.15-2.56-2.56v-65.27c0-1.41,1.15-2.56,2.56-2.56h6.14c1.41,0,2.56,1.15,2.56,2.56v65.27c0,1.41-1.15,2.56-2.56,2.56Z"/><path class="cls-4" d="M847.19,176.3c-2.56.38-5.89.64-8.32.64-11.77,0-17.4-3.07-17.4-17.15v-44.66l-12.41-1.41c-1.41-.13-2.43-.9-2.43-2.3v-3.46c0-1.41,1.02-2.3,2.43-2.3h12.41v-12.54c0-1.28.9-2.3,2.3-2.56l6.66-1.02h.38c1.02,0,1.92.9,1.92,2.18v13.95h13.82c1.41,0,2.56,1.15,2.56,2.56v4.35c0,1.41-1.15,2.56-2.56,2.56h-13.82v44.66c0,7.04,1.79,8.06,6.91,8.06h7.17c1.79,0,2.69.51,2.69,1.79v4.48c0,1.15-.64,1.92-2.3,2.18Z"/></g></svg>