<?xml version="1.0" encoding="UTF-8"?><svg id="Layer_1" xmlns="http://www.w3.org/2000/svg" xmlns:xlink="http://www.w3.org/1999/xlink" viewBox="0 0 1320 256"><defs><style>.cls-1,.cls-2{fill:none;}.cls-2{stroke:#424d60;stroke-width:3.2px;}.cls-3{fill:#424d60;}.cls-4{fill:#ff9439;}.cls-5{clip-path:url(#clippath-1);}.cls-6{clip-path:url(#clippath-3);}.cls-7{clip-path:url(#clippath-4);}.cls-8{clip-path:url(#clippath-2);}.cls-9{fill:#fff;}.cls-10{fill:#ff7500;}.cls-11{fill:#e9ebef;}.cls-12{fill:#e9eaed;}.cls-13{fill:#ffba80;}.cls-14{clip-path:url(#clippath);}</style><clipPath id="clippath"><rect class="cls-1" x="0" y="0" width="256" height="256"/></clipPath><clipPath id="clippath-1"><rect class="cls-1" x="0" y="0" width="256" height="256"/></clipPath><clipPath id="clippath-2"><rect class="cls-1" x="0" y="0" width="256" height="256"/></clipPath><clipPath id="clippath-3"><rect class="cls-1" x="344.86" y="-34.21" width="1228.55" height="319.93"/></clipPath><clipPath id="clippath-4"><rect class="cls-1" x="344.86" y="-34.21" width="1228.55" height="319.93"/></clipPath></defs><g class="cls-14"><g class="cls-5"><rect class="cls-9" x=".75" y=".75" width="254.5" height="254.5" rx="50.25" ry="50.25"/><path class="cls-11" d="M205,1.5c27.29,0,49.5,22.21,49.5,49.5v154c0,27.29-22.21,49.5-49.5,49.5H51c-27.29,0-49.5-22.21-49.5-49.5V51C1.5,23.71,23.71,1.5,51,1.5h154ZM205,0H51C22.83,0,0,22.83,0,51v154C0,233.17,22.83,256,51,256h154c28.17,0,51-22.83,51-51V51C256,22.83,233.17,0,205,0"/></g><g class="cls-8"><path class="cls-13" d="M157.91,204h-44c-2.21,0-4-1.79-4-4v-44c0-2.21,1.79-4,4-4h44c2.21,0,4,1.79,4,4v44c0,2.21-1.79,4-4,4"/><path class="cls-4" d="M121.92,168h-52c-2.21,0-4-1.79-4-4v-52c0-2.21,1.79-4,4-4h52c2.21,0,4,1.79,4,4v52c0,2.21-1.79,4-4,4"/><path class="cls-10" d="M185.91,128h-68c-2.21,0-4-1.79-4-4V56c0-2.21,1.79-4,4-4h68c2.21,0,4,1.79,4,4v68c0,2.21-1.79,4-4,4"/></g></g><path class="cls-12" d="M205.14,3.97c26.04,0,47.23,21.19,47.23,47.23v153.6c0,26.04-21.19,47.23-47.23,47.23H51.54c-26.04,0-47.23-21.19-47.23-47.23V51.2C4.31,25.16,25.5,3.97,51.54,3.97h153.6M205.14,0H51.54C23.26,0,.34,22.92.34,51.2v153.6c0,28.28,22.92,51.2,51.2,51.2h153.6c28.28,0,51.2-22.92,51.2-51.2V51.2C256.34,22.92,233.42,0,205.14,0h0Z"/><g class="cls-6"><g class="cls-7"><path class="cls-3" d="M373.72,178.28c-9.46,0-16.69-2.02-21.5-6-4.88-4.05-7.36-10.58-7.36-19.4v-49.27c0-8.83,2.48-15.36,7.36-19.4,4.8-3.98,12.04-6,21.5-6,22.62,0,30.09.23,35.79.77,1.23.03,1.89,1.02,2.11,1.35.43.65.65,1.34.65,2.04v6.4c0,.95-.29,1.72-.85,2.28-.54.54-1.33.85-2.15.85h-35.42c-4.11,0-7.31.44-9.53,1.3-1.93.75-3.14,1.77-3.72,3.11-.61,1.42-.9,3.75-.9,7.3v16.19h47.05c1.15,0,2.08.39,2.92,1.24.84.84,1.24,1.77,1.24,2.92v4.86c0,1.15-.39,2.08-1.24,2.92-.84.84-1.77,1.24-2.92,1.24h-47.05v19.9c0,3.56.28,5.88.9,7.3.57,1.34,1.79,2.36,3.72,3.11,2.12.82,4.42,1.3,11.78,1.3h33.17c.83,0,1.62.31,2.16.85.56.56.85,1.33.85,2.28v6.53c0,.7-.22,1.39-.65,2.04-.22.33-.88,1.32-2.16,1.35-4.41.41-13.31.64-25.02.64h-10.72Z"/><path class="cls-3" d="M501.15,130.06v42.18c0,2.7-1.46,3.2-2.08,3.38-.32.1-13.36,2.98-34.52,2.98-25.17,0-44.58-14.37-44.58-40.16,0-2.4-.03-3.28-.03-19.2,0-33.47,25.89-41.2,46.06-41.2,18.18,0,24.6,1.55,31.46,2.59.65.1,1.24.29,1.73.56.37.2.69.45.96.73.55.58.87,1.34.87,2.23v6.43c0,.6-.19,2.42-2.37,2.82-.27.05-.58.08-.92.08,0,0-.53,0-.68-.02-1.25-.11-14.55-1.64-29.89-1.64-21.26,0-32.31,9.07-32.31,28.32v16.88c0,19.88,13.14,27.96,30.39,27.96,13.58,0,20.98-1.31,20.98-1.31v-24.53h-9.2c-1.86,0-4.15-1.36-4.15-3.66s-.03-2.41-.03-5.41,2.38-4.18,4.18-4.18h20.07c2.43,0,4.05,2.04,4.05,4.18"/><path class="cls-2" d="M607.25,176.04h-6.53c-1.41,0-2.56-1.15-2.56-2.56v-42.49h-43.77v42.49c0,1.41-1.15,2.56-2.56,2.56h-6.53c-1.41,0-2.56-1.15-2.56-2.56v-89.97c0-1.41,1.15-2.56,2.56-2.56h6.53c1.41,0,2.56,1.15,2.56,2.56v37.11h43.77v-37.11c0-1.41,1.15-2.56,2.56-2.56h6.53c1.41,0,2.56,1.15,2.56,2.56v89.97c0,1.41-1.15,2.56-2.56,2.56Z"/><path class="cls-2" d="M653.06,176.94c-18.81,0-28.41-12.41-28.41-31.23v-9.73c0-18.81,9.6-31.23,28.41-31.23s28.54,12.41,28.54,31.23v9.73c0,18.81-9.73,31.23-28.54,31.23ZM670.33,135.98c0-13.05-5.25-21.37-17.28-21.37s-17.15,8.19-17.15,21.37v9.73c0,13.05,5.12,21.37,17.15,21.37s17.28-8.19,17.28-21.37v-9.73Z"/><path class="cls-2" d="M704.76,176.04h-6.65c-1.28,0-2.3-1.15-2.3-2.56v-91.25c0-1.28.9-2.43,2.3-2.43h6.65c1.28,0,2.3,1.02,2.3,2.43v91.25c0,1.28-.9,2.56-2.3,2.56Z"/><path class="cls-2" d="M759.27,176.3c-2.56.38-5.89.64-8.32.64-11.77,0-17.4-3.07-17.4-17.15v-44.66l-12.41-1.41c-1.41-.13-2.43-.9-2.43-2.3v-3.46c0-1.41,1.02-2.3,2.43-2.3h12.41v-12.54c0-1.28.9-2.3,2.3-2.56l6.66-1.02h.38c1.02,0,1.92.9,1.92,2.18v13.95h13.82c1.41,0,2.56,1.15,2.56,2.56v4.35c0,1.41-1.15,2.56-2.56,2.56h-13.82v44.66c0,7.04,1.79,8.06,6.91,8.06h7.17c1.79,0,2.69.51,2.69,1.79v4.48c0,1.15-.64,1.92-2.3,2.18Z"/><path class="cls-2" d="M822.88,144.43h-42.87v1.79c0,15.23,6.02,20.86,17.79,20.86,7.42,0,16.89-.51,22.78-1.41h.64c1.02,0,2.05.51,2.05,1.79v4.35c0,1.66-.51,2.56-2.56,2.94-7.29,1.41-14.33,2.17-22.91,2.17-14.72,0-29.05-6.91-29.05-30.71v-11.52c0-18.3,10.11-29.95,28.41-29.95s28.15,11.77,28.15,29.95v6.91c0,1.66-.9,2.82-2.43,2.82ZM813.92,134.7c0-14.46-5.5-20.09-16.76-20.09s-17.15,6.27-17.15,20.09v1.15h33.91v-1.15Z"/><path class="cls-2" d="M863.83,138.16c-4.1,0-9.47-.38-12.8-.64v35.96c0,1.28-.9,2.56-2.3,2.56h-6.91c-1.28,0-2.3-1.15-2.3-2.56v-89.2c0-1.79,1.15-2.94,3.07-3.2,5.5-.64,13.82-1.02,21.24-1.02,20.73,0,35.83,7.17,35.83,27.77v1.66c0,21.37-15.1,28.67-35.83,28.67ZM888.01,107.83c0-12.93-7.68-17.92-24.19-17.92-3.97,0-9.73.26-12.8.51v37.5c2.94.13,9.47.51,12.8.51,17.53,0,24.19-5.63,24.19-18.94v-1.66Z"/><path class="cls-2" d="M933.57,176.94c-18.81,0-28.41-12.41-28.41-31.23v-9.73c0-18.81,9.6-31.23,28.41-31.23s28.54,12.41,28.54,31.23v9.73c0,18.81-9.73,31.23-28.54,31.23ZM950.85,135.98c0-13.05-5.25-21.37-17.28-21.37s-17.15,8.19-17.15,21.37v9.73c0,13.05,5.12,21.37,17.15,21.37s17.28-8.19,17.28-21.37v-9.73Z"/><path class="cls-2" d="M1004.72,114.48c-5.89,0-11.26,1.54-17.66,5.38v53.62c0,1.28-1.15,2.56-2.56,2.56h-6.27c-1.28,0-2.43-1.15-2.43-2.56v-65.27c0-1.41,1.02-2.56,2.43-2.56h6.01c1.41,0,2.43,1.15,2.43,2.56v2.69c6.4-4.48,12.29-6.14,18.04-6.14,1.79,0,2.69.77,2.69,2.3v5.25c0,1.41-.9,2.17-2.69,2.17Z"/><path class="cls-2" d="M1056.68,176.3c-2.56.38-5.89.64-8.32.64-11.77,0-17.4-3.07-17.4-17.15v-44.66l-12.41-1.41c-1.41-.13-2.43-.9-2.43-2.3v-3.46c0-1.41,1.02-2.3,2.43-2.3h12.41v-12.54c0-1.28.9-2.3,2.3-2.56l6.66-1.02h.38c1.02,0,1.92.9,1.92,2.18v13.95h13.82c1.41,0,2.56,1.15,2.56,2.56v4.35c0,1.41-1.15,2.56-2.56,2.56h-13.82v44.66c0,7.04,1.79,8.06,6.91,8.06h7.17c1.79,0,2.69.51,2.69,1.79v4.48c0,1.15-.64,1.92-2.3,2.18Z"/><path class="cls-2" d="M1116.83,176.04h-5.89c-1.41,0-2.56-1.15-2.56-2.56v-2.82c-6.14,3.58-12.54,6.27-19.71,6.27-10.88,0-20.86-4.73-20.86-20.73v-1.54c0-13.82,8.06-20.73,30.84-20.73h9.47v-5.12c0-10.75-3.71-14.46-13.69-14.46-8.32,0-14.46.51-19.58,1.02h-.64c-1.15,0-2.3-.38-2.3-2.05v-4.48c0-1.41.9-2.17,2.69-2.43,5.25-.9,11.13-1.66,19.84-1.66,17.79,0,24.96,8.96,24.96,24.06v44.66c0,1.41-1.15,2.56-2.56,2.56ZM1108.12,142h-9.47c-15.49,0-19.58,3.46-19.58,12.54v1.54c0,9.21,4.35,11.65,11.77,11.65,5.89,0,11.13-1.79,17.28-5.12v-20.6Z"/><path class="cls-2" d="M1144.73,176.04h-6.66c-1.28,0-2.3-1.15-2.3-2.56v-91.25c0-1.28.9-2.43,2.3-2.43h6.66c1.28,0,2.3,1.02,2.3,2.43v91.25c0,1.28-.9,2.56-2.3,2.56Z"/><path class="cls-2" d="M1215.49,144.43h-42.87v1.79c0,15.23,6.02,20.86,17.79,20.86,7.42,0,16.89-.51,22.78-1.41h.64c1.02,0,2.05.51,2.05,1.79v4.35c0,1.66-.51,2.56-2.56,2.94-7.29,1.41-14.33,2.17-22.91,2.17-14.72,0-29.05-6.91-29.05-30.71v-11.52c0-18.3,10.11-29.95,28.41-29.95s28.15,11.77,28.15,29.95v6.91c0,1.66-.9,2.82-2.43,2.82ZM1206.54,134.7c0-14.46-5.5-20.09-16.76-20.09s-17.15,6.27-17.15,20.09v1.15h33.91v-1.15Z"/><path class="cls-2" d="M1282.55,176.04h-6.14c-1.41,0-2.56-1.15-2.56-2.56v-42.1c0-12.93-4.35-16.89-14.08-16.89-5.38,0-11.39,2.05-17.28,4.99v54.01c0,1.28-1.15,2.56-2.56,2.56h-6.27c-1.28,0-2.43-1.15-2.43-2.56v-65.27c0-1.41,1.02-2.56,2.43-2.56h6.4c1.41,0,2.43,1.15,2.43,2.56v2.43c7.04-3.97,12.8-5.89,20.35-5.89,15.36,0,22.27,9.6,22.27,26.62v42.1c0,1.41-1.15,2.56-2.56,2.56Z"/></g><path class="cls-3" d="M607.25,176.04h-6.53c-1.41,0-2.56-1.15-2.56-2.56v-42.49h-43.77v42.49c0,1.41-1.15,2.56-2.56,2.56h-6.53c-1.41,0-2.56-1.15-2.56-2.56v-89.97c0-1.41,1.15-2.56,2.56-2.56h6.53c1.41,0,2.56,1.15,2.56,2.56v37.11h43.77v-37.11c0-1.41,1.15-2.56,2.56-2.56h6.53c1.41,0,2.56,1.15,2.56,2.56v89.97c0,1.41-1.15,2.56-2.56,2.56Z"/><path class="cls-3" d="M653.06,176.94c-18.81,0-28.41-12.41-28.41-31.23v-9.73c0-18.81,9.6-31.23,28.41-31.23s28.54,12.41,28.54,31.23v9.73c0,18.81-9.73,31.23-28.54,31.23ZM670.33,135.98c0-13.05-5.25-21.37-17.28-21.37s-17.15,8.19-17.15,21.37v9.73c0,13.05,5.12,21.37,17.15,21.37s17.28-8.19,17.28-21.37v-9.73Z"/><path class="cls-3" d="M704.76,176.04h-6.65c-1.28,0-2.3-1.15-2.3-2.56v-91.25c0-1.28.9-2.43,2.3-2.43h6.65c1.28,0,2.3,1.02,2.3,2.43v91.25c0,1.28-.9,2.56-2.3,2.56Z"/><path class="cls-3" d="M759.27,176.3c-2.56.38-5.89.64-8.32.64-11.77,0-17.4-3.07-17.4-17.15v-44.66l-12.41-1.41c-1.41-.13-2.43-.9-2.43-2.3v-3.46c0-1.41,1.02-2.3,2.43-2.3h12.41v-12.54c0-1.28.9-2.3,2.3-2.56l6.66-1.02h.38c1.02,0,1.92.9,1.92,2.18v13.95h13.82c1.41,0,2.56,1.15,2.56,2.56v4.35c0,1.41-1.15,2.56-2.56,2.56h-13.82v44.66c0,7.04,1.79,8.06,6.91,8.06h7.17c1.79,0,2.69.51,2.69,1.79v4.48c0,1.15-.64,1.92-2.3,2.18Z"/><path class="cls-3" d="M822.88,144.43h-42.87v1.79c0,15.23,6.02,20.86,17.79,20.86,7.42,0,16.89-.51,22.78-1.41h.64c1.02,0,2.05.51,2.05,1.79v4.35c0,1.66-.51,2.56-2.56,2.94-7.29,1.41-14.33,2.17-22.91,2.17-14.72,0-29.05-6.91-29.05-30.71v-11.52c0-18.3,10.11-29.95,28.41-29.95s28.15,11.77,28.15,29.95v6.91c0,1.66-.9,2.82-2.43,2.82ZM813.92,134.7c0-14.46-5.5-20.09-16.76-20.09s-17.15,6.27-17.15,20.09v1.15h33.91v-1.15Z"/><path class="cls-3" d="M863.83,138.16c-4.1,0-9.47-.38-12.8-.64v35.96c0,1.28-.9,2.56-2.3,2.56h-6.91c-1.28,0-2.3-1.15-2.3-2.56v-89.2c0-1.79,1.15-2.94,3.07-3.2,5.5-.64,13.82-1.02,21.24-1.02,20.73,0,35.83,7.17,35.83,27.77v1.66c0,21.37-15.1,28.67-35.83,28.67ZM888.01,107.83c0-12.93-7.68-17.92-24.19-17.92-3.97,0-9.73.26-12.8.51v37.5c2.94.13,9.47.51,12.8.51,17.53,0,24.19-5.63,24.19-18.94v-1.66Z"/><path class="cls-3" d="M933.57,176.94c-18.81,0-28.41-12.41-28.41-31.23v-9.73c0-18.81,9.6-31.23,28.41-31.23s28.54,12.41,28.54,31.23v9.73c0,18.81-9.73,31.23-28.54,31.23ZM950.85,135.98c0-13.05-5.25-21.37-17.28-21.37s-17.15,8.19-17.15,21.37v9.73c0,13.05,5.12,21.37,17.15,21.37s17.28-8.19,17.28-21.37v-9.73Z"/><path class="cls-3" d="M1004.72,114.48c-5.89,0-11.26,1.54-17.66,5.38v53.62c0,1.28-1.15,2.56-2.56,2.56h-6.27c-1.28,0-2.43-1.15-2.43-2.56v-65.27c0-1.41,1.02-2.56,2.43-2.56h6.01c1.41,0,2.43,1.15,2.43,2.56v2.69c6.4-4.48,12.29-6.14,18.04-6.14,1.79,0,2.69.77,2.69,2.3v5.25c0,1.41-.9,2.17-2.69,2.17Z"/><path class="cls-3" d="M1056.68,176.3c-2.56.38-5.89.64-8.32.64-11.77,0-17.4-3.07-17.4-17.15v-44.66l-12.41-1.41c-1.41-.13-2.43-.9-2.43-2.3v-3.46c0-1.41,1.02-2.3,2.43-2.3h12.41v-12.54c0-1.28.9-2.3,2.3-2.56l6.66-1.02h.38c1.02,0,1.92.9,1.92,2.18v13.95h13.82c1.41,0,2.56,1.15,2.56,2.56v4.35c0,1.41-1.15,2.56-2.56,2.56h-13.82v44.66c0,7.04,1.79,8.06,6.91,8.06h7.17c1.79,0,2.69.51,2.69,1.79v4.48c0,1.15-.64,1.92-2.3,2.18Z"/><path class="cls-3" d="M1116.83,176.04h-5.89c-1.41,0-2.56-1.15-2.56-2.56v-2.82c-6.14,3.58-12.54,6.27-19.71,6.27-10.88,0-20.86-4.73-20.86-20.73v-1.54c0-13.82,8.06-20.73,30.84-20.73h9.47v-5.12c0-10.75-3.71-14.46-13.69-14.46-8.32,0-14.46.51-19.58,1.02h-.64c-1.15,0-2.3-.38-2.3-2.05v-4.48c0-1.41.9-2.17,2.69-2.43,5.25-.9,11.13-1.66,19.84-1.66,17.79,0,24.96,8.96,24.96,24.06v44.66c0,1.41-1.15,2.56-2.56,2.56ZM1108.12,142h-9.47c-15.49,0-19.58,3.46-19.58,12.54v1.54c0,9.21,4.35,11.65,11.77,11.65,5.89,0,11.13-1.79,17.28-5.12v-20.6Z"/><path class="cls-3" d="M1144.73,176.04h-6.66c-1.28,0-2.3-1.15-2.3-2.56v-91.25c0-1.28.9-2.43,2.3-2.43h6.66c1.28,0,2.3,1.02,2.3,2.43v91.25c0,1.28-.9,2.56-2.3,2.56Z"/><path class="cls-3" d="M1215.49,144.43h-42.87v1.79c0,15.23,6.02,20.86,17.79,20.86,7.42,0,16.89-.51,22.78-1.41h.64c1.02,0,2.05.51,2.05,1.79v4.35c0,1.66-.51,2.56-2.56,2.94-7.29,1.41-14.33,2.17-22.91,2.17-14.72,0-29.05-6.91-29.05-30.71v-11.52c0-18.3,10.11-29.95,28.41-29.95s28.15,11.77,28.15,29.95v6.91c0,1.66-.9,2.82-2.43,2.82ZM1206.54,134.7c0-14.46-5.5-20.09-16.76-20.09s-17.15,6.27-17.15,20.09v1.15h33.91v-1.15Z"/><path class="cls-3" d="M1282.55,176.04h-6.14c-1.41,0-2.56-1.15-2.56-2.56v-42.1c0-12.93-4.35-16.89-14.08-16.89-5.38,0-11.39,2.05-17.28,4.99v54.01c0,1.28-1.15,2.56-2.56,2.56h-6.27c-1.28,0-2.43-1.15-2.43-2.56v-65.27c0-1.41,1.02-2.56,2.43-2.56h6.4c1.41,0,2.43,1.15,2.43,2.56v2.43c7.04-3.97,12.8-5.89,20.35-5.89,15.36,0,22.27,9.6,22.27,26.62v42.1c0,1.41-1.15,2.56-2.56,2.56Z"/></g></svg>