<?xml version="1.0" encoding="UTF-8"?><svg id="Layer_1" xmlns="http://www.w3.org/2000/svg" xmlns:xlink="http://www.w3.org/1999/xlink" viewBox="0 0 256 256"><defs><style>.cls-1{fill:none;}.cls-2{fill:#ff9439;}.cls-3{clip-path:url(#clippath-1);}.cls-4{clip-path:url(#clippath-2);}.cls-5{fill:#fff;}.cls-6{fill:#ff7500;}.cls-7{fill:#e9ebef;}.cls-8{fill:#e9eaed;}.cls-9{fill:#ffba80;}.cls-10{clip-path:url(#clippath);}</style><clipPath id="clippath"><rect class="cls-1" x="0" y="0" width="256" height="256"/></clipPath><clipPath id="clippath-1"><rect class="cls-1" x="0" y="0" width="256" height="256"/></clipPath><clipPath id="clippath-2"><rect class="cls-1" x="0" y="0" width="256" height="256"/></clipPath></defs><g class="cls-10"><g class="cls-3"><rect class="cls-5" x=".75" y=".75" width="254.5" height="254.5" rx="50.25" ry="50.25"/><path class="cls-7" d="M205,1.5c27.29,0,49.5,22.21,49.5,49.5v154c0,27.29-22.21,49.5-49.5,49.5H51c-27.29,0-49.5-22.21-49.5-49.5V51C1.5,23.71,23.71,1.5,51,1.5h154ZM205,0H51C22.83,0,0,22.83,0,51v154C0,233.17,22.83,256,51,256h154c28.17,0,51-22.83,51-51V51C256,22.83,233.17,0,205,0"/></g><g class="cls-4"><path class="cls-9" d="M157.91,204h-44c-2.21,0-4-1.79-4-4v-44c0-2.21,1.79-4,4-4h44c2.21,0,4,1.79,4,4v44c0,2.21-1.79,4-4,4"/><path class="cls-2" d="M121.92,168h-52c-2.21,0-4-1.79-4-4v-52c0-2.21,1.79-4,4-4h52c2.21,0,4,1.79,4,4v52c0,2.21-1.79,4-4,4"/><path class="cls-6" d="M185.91,128h-68c-2.21,0-4-1.79-4-4V56c0-2.21,1.79-4,4-4h68c2.21,0,4,1.79,4,4v68c0,2.21-1.79,4-4,4"/></g></g><path class="cls-8" d="M204.8,3.97c26.04,0,47.23,21.19,47.23,47.23v153.6c0,26.04-21.19,47.23-47.23,47.23H51.2c-26.04,0-47.23-21.19-47.23-47.23V51.2C3.97,25.16,25.16,3.97,51.2,3.97h153.6M204.8,0H51.2C22.92,0,0,22.92,0,51.2v153.6c0,28.28,22.92,51.2,51.2,51.2h153.6c28.28,0,51.2-22.92,51.2-51.2V51.2C256,22.92,233.08,0,204.8,0h0Z"/></svg>