<?xml version="1.0" encoding="UTF-8"?>
<svg id="Layer_1" data-name="Layer 1" xmlns="http://www.w3.org/2000/svg" viewBox="0 0 256 256">
  <defs>
    <style>
      .cls-1 {
        fill: #412366;
      }

      .cls-2 {
        fill: #fff;
      }

      .cls-3 {
        fill: #e9ebef;
      }

      .cls-4 {
        fill: #c0a6f8;
      }

      .cls-5 {
        fill: #7c4fb4;
      }
    </style>
  </defs>
  <g>
    <path class="cls-2" d="M51.2002,1.98684h153.59961c27.16133,0,49.21289,22.05156,49.21289,49.21289v153.59961c0,27.16133-22.05156,49.21289-49.21289,49.21289H51.19922c-27.16079,0-49.21191-22.05112-49.21191-49.21191V51.19973C1.9873,24.0384,24.03886,1.98684,51.2002,1.98684Z"/>
    <path class="cls-3" d="M204.8,3.97461c26.04018,0,47.22539,21.18521,47.22539,47.22537v153.60004c0,26.04016-21.18521,47.2254-47.22539,47.2254H51.2c-26.04018,0-47.22539-21.18524-47.22539-47.2254V51.19998C3.97461,25.15982,25.15982,3.97461,51.2,3.97461h153.6M204.8,0H51.2C22.92304,0,0,22.92303,0,51.19998v153.60004c0,28.27698,22.92304,51.20001,51.2,51.20001h153.6c28.27696,0,51.2-22.92303,51.2-51.20001V51.19998C256,22.92303,233.07697,0,204.8,0h0Z"/>
  </g>
  <g>
    <rect class="cls-4" x="40.36036" y="66.86244" width="47.99996" height="48" rx="4" ry="4" transform="translate(174.11943 109.60222) rotate(134.99998)"/>
    <rect class="cls-5" x="82.78583" y="109.28978" width="47.99996" height="48" rx="4" ry="4" transform="translate(276.54488 152.03085) rotate(134.99998)"/>
    <rect class="cls-5" x="167.63909" y="109.28909" width="48.00073" height="47.99996" rx="4" ry="4" transform="translate(421.39859 92.029) rotate(134.99997)"/>
    <rect class="cls-1" x="125.2127" y="151.71551" width="48.00073" height="47.99996" rx="4" ry="4" transform="translate(378.97225 194.45542) rotate(134.99997)"/>
  </g>
</svg>