<?xml version="1.0" encoding="UTF-8"?>
<svg id="Layer_1" data-name="Layer 1" xmlns="http://www.w3.org/2000/svg" viewBox="0 0 945.46 256">
  <g>
    <path d="M51.2,1.99h153.6c27.16,0,49.21,22.05,49.21,49.21v153.6c0,27.16-22.05,49.21-49.21,49.21H51.2c-27.16,0-49.21-22.05-49.21-49.21V51.2C1.99,24.04,24.04,1.99,51.2,1.99Z" style="fill: #fff;"/>
    <path d="M204.8,3.97c26.04,0,47.23,21.19,47.23,47.23v153.6c0,26.04-21.19,47.23-47.23,47.23H51.2c-26.04,0-47.23-21.19-47.23-47.23V51.2C3.97,25.16,25.16,3.97,51.2,3.97h153.6M204.8,0H51.2C22.92,0,0,22.92,0,51.2v153.6c0,28.28,22.92,51.2,51.2,51.2h153.6c28.28,0,51.2-22.92,51.2-51.2V51.2C256,22.92,233.08,0,204.8,0h0Z" style="fill: #e9ebee;"/>
  </g>
  <g>
    <path d="M372.54,178.33c-9.46,0-16.7-2.02-21.5-6-4.89-4.05-7.36-10.58-7.36-19.41v-49.28c0-8.83,2.48-15.36,7.36-19.41,4.81-3.98,12.04-6,21.5-6,22.62,0,30.09.23,35.8.77,1.23.03,1.89,1.02,2.11,1.35.43.65.65,1.34.65,2.04v6.4c0,.95-.29,1.72-.85,2.28-.54.54-1.33.85-2.15.85h-35.43c-4.11,0-7.32.44-9.53,1.3-1.93.75-3.14,1.77-3.72,3.11-.61,1.42-.9,3.75-.9,7.31v16.19h47.06c1.15,0,2.08.39,2.92,1.24.84.84,1.24,1.77,1.24,2.92v4.86c0,1.15-.39,2.08-1.24,2.92-.84.84-1.77,1.24-2.92,1.24h-47.06v19.9c0,3.56.28,5.88.9,7.31.57,1.34,1.79,2.36,3.72,3.11,2.12.82,4.42,1.3,11.78,1.3h33.18c.83,0,1.62.31,2.16.85.56.56.85,1.33.85,2.28v6.53c0,.7-.22,1.39-.65,2.04-.22.33-.88,1.32-2.16,1.35-4.41.41-13.32.64-25.02.64h-10.72Z" style="fill: #434e60;"/>
    <path d="M500.01,130.1v42.19c0,2.7-1.46,3.2-2.08,3.38-.32.1-13.36,2.98-34.53,2.98-25.17,0-44.59-14.37-44.59-40.17,0-2.4-.03-3.28-.03-19.21,0-33.48,25.9-41.21,46.07-41.21,18.18,0,24.6,1.56,31.46,2.59.65.1,1.24.29,1.74.56.37.2.69.45.96.73.55.58.87,1.34.87,2.23v6.43c0,.6-.19,2.42-2.37,2.82-.27.05-.58.08-.92.08,0,0-.52,0-.68-.02-1.25-.11-14.55-1.64-29.89-1.64-21.27,0-32.32,9.07-32.32,28.33v16.89c0,19.88,13.14,27.96,30.4,27.96,13.58,0,20.98-1.31,20.98-1.31v-24.53h-9.2c-1.86,0-4.15-1.36-4.15-3.66s-.03-2.41-.03-5.41,2.38-4.18,4.18-4.18h20.07c2.43,0,4.05,2.04,4.05,4.18" style="fill: #434e60;"/>
    <g>
      <path d="M703.25,103.2c-3.74,0-7.34.5-10.69,1.47-2.4.7-5.01,1.78-8.07,3.35-.06-1.18-.53-1.96-.95-2.52-.68-.91-1.77-1.41-3.07-1.41h-6.4c-1.15,0-2.08.39-2.92,1.24-.98.98-1.11,2.03-1.11,2.92v65.28c0,1.15.39,2.08,1.24,2.92.83.83,1.75,1.24,2.8,1.24h6.27c1.15,0,2.08-.39,2.92-1.24.8-.8,1.24-1.83,1.24-2.92v-53.02c6.03-2.91,11.3-4.39,15.68-4.39s7.67,1.07,9.56,3.18c1.91,2.14,2.92,6.33,2.92,12.12v42.11c0,1.15.39,2.08,1.24,2.92.84.84,1.77,1.24,2.92,1.24h6.14c1.15,0,2.08-.39,2.92-1.24.84-.84,1.24-1.77,1.24-2.92v-42.11c0-18.73-8.03-28.22-23.87-28.22Z" style="fill: #434e60;"/>
      <path d="M593.57,164.89h-24.7c-4.11,0-7.32-.44-9.53-1.3-1.95-.76-3.13-1.75-3.72-3.11-.61-1.42-.89-3.75-.89-7.31v-69.63c0-1.15-.39-2.08-1.24-2.92-.84-.84-1.77-1.24-2.92-1.24h-6.53c-1.15,0-2.08.39-2.92,1.24-.84.84-1.24,1.77-1.24,2.92v69.63c0,3.09.27,5.88.81,8.28.52,2.34,1.32,4.56,2.33,6.43.99,1.84,2.29,3.42,3.85,4.7,1.47,1.21,3,2.45,4.75,3.18,1.61.67,3.38,1.35,5.42,1.76,2.03.41,3.89.67,5.7.8,1.92.14,3.82.26,6,.26,11.6,0,20.05-.39,25.11-1.16,1.23-.07,1.86-1.03,2.08-1.35.43-.65.65-1.34.65-2.04v-6.02c0-1.18-.46-1.9-.85-2.28-.54-.54-1.33-.85-2.15-.85Z" style="fill: #434e60;"/>
      <path d="M631,103.2c-6.75,0-13.52.57-20.07,1.68-3.53.51-4.06,2.73-4.06,4.02v4.48c0,2.28,1.46,3.65,3.9,3.65h.79c7.25-.69,13.61-1.02,19.43-1.02,4.59,0,7.78.91,9.46,2.7,1.75,1.86,2.64,5.28,2.64,10.17v3.52h-7.87c-11.58,0-19.67,1.73-24.73,5.28-5.12,3.6-7.72,9.34-7.72,17.05v1.54c0,4.19.58,7.66,1.78,10.59,1.24,3.04,2.96,5.35,5.26,7.07,2.46,1.85,4.64,2.95,7.08,3.6,2.72.71,5.52,1.08,8.34,1.08,5.69,0,11.64-1.68,18.11-5.14v.08c0,1.15.39,2.08,1.24,2.92.84.84,1.77,1.24,2.92,1.24h5.89c1.15,0,2.08-.39,2.92-1.24.84-.84,1.24-1.77,1.24-2.92v-44.67c0-8.2-2.18-14.6-6.47-19.03-4.32-4.46-10.89-6.63-20.09-6.63ZM617.24,154.59c0-2.8.59-6.53,3.38-8.4,1.43-.95,5.22-2.55,14.6-2.55h7.87v18.05c-5.55,2.93-10.96,4.47-15.68,4.47-3.5,0-6.12-.73-7.78-2.17-1.56-1.36-2.39-4.08-2.39-7.88v-1.54Z" style="fill: #434e60;"/>
      <path d="M929.98,172.24l-22.78-32.75,20.86-29.68.12-.21c.47-.94.81-1.61.81-2.38,0-.85-.34-1.64-.98-2.28-.39-.39-1.1-.85-2.28-.85h-7.42c-.81,0-1.58.15-2.12.43-.25.12-.76.38-1.89,2.07l-15.06,22.11-14.93-22.1c-.72-1.08-1.9-2.5-3.89-2.5h-8.32c-1.12,0-1.83.47-2.3.78-.79.53-1.22,1.36-1.22,2.35,0,.81.29,1.62.93,2.58l21.12,30.44-22.37,31.94c-.41.55-.96,1.42-.96,2.62,0,1.39.82,2.88,3.14,2.88h7.68c.77,0,1.42-.14,2-.42.56-.28.9-.75,1.3-1.28l17.18-24.84,16.99,24.83.07.1c.56.7,1.48,1.62,3.04,1.62h8.83c1.98,0,3.26-1.18,3.26-3.01,0-.92-.28-1.76-.8-2.45Z" style="fill: #434e60;"/>
      <path d="M790.74,78.24h-6.53c-1.15,0-2.08.39-2.92,1.24-.99.99-1.11,2.07-1.11,2.8v21.92c-4.29-.67-8.69-.99-13.38-.99-9.61,0-17.03,2.9-22.07,8.61-4.94,5.6-7.44,13.8-7.44,24.35v9.22c0,10.15,2.45,18.28,7.27,24.18,4.9,6,12.38,9.03,22.23,9.03,8.36,0,16.37-.74,23.81-2.2,1-.13,2.39-.43,3.2-1.52.74-.98.83-2.12.83-3.01v-89.6c0-.9-.13-1.95-1.11-2.92-.99-.99-2.07-1.11-2.8-1.11ZM780.18,116.9v47.98c-5.46.42-10.06.65-13.38.65-5.56,0-9.36-1.54-11.63-4.71-2.3-3.22-3.41-8.27-3.41-15.45v-9.22c0-6.79,1.19-11.91,3.54-15.2,2.26-3.17,6.02-4.71,11.5-4.71,6.02,0,10.33.21,13.38.65Z" style="fill: #434e60;"/>
      <path d="M832.03,103.2c-6.75,0-13.52.57-20.07,1.68-3.53.51-4.06,2.73-4.06,4.02v4.48c0,2.28,1.46,3.65,3.9,3.65h.79c7.25-.69,13.61-1.02,19.43-1.02,4.59,0,7.77.91,9.46,2.7,1.75,1.86,2.64,5.28,2.64,10.17v3.52h-7.87c-11.58,0-19.67,1.73-24.73,5.28-5.12,3.6-7.72,9.34-7.72,17.05v1.54c0,4.19.58,7.66,1.78,10.59,1.24,3.04,2.96,5.35,5.26,7.07,2.46,1.85,4.64,2.95,7.08,3.6,2.72.71,5.52,1.08,8.34,1.08,5.69,0,11.64-1.68,18.11-5.14v.08c0,1.15.39,2.08,1.24,2.92.84.84,1.77,1.24,2.92,1.24h5.89c1.15,0,2.08-.39,2.92-1.24.84-.84,1.24-1.77,1.24-2.92v-44.67c0-8.2-2.18-14.6-6.47-19.03-4.32-4.46-10.9-6.63-20.09-6.63ZM818.27,154.59c0-2.8.59-6.53,3.38-8.4,1.43-.95,5.22-2.55,14.6-2.55h7.87v18.05c-5.55,2.93-10.96,4.47-15.68,4.47-3.5,0-6.12-.73-7.78-2.17-1.57-1.36-2.39-4.08-2.39-7.88v-1.54Z" style="fill: #434e60;"/>
    </g>
  </g>
  <g>
    <rect x="40.36" y="66.86" width="48" height="48" rx="4" ry="4" transform="translate(174.12 109.6) rotate(135)" style="fill: #b8a6d0;"/>
    <rect x="82.79" y="109.29" width="48" height="48" rx="4" ry="4" transform="translate(276.54 152.03) rotate(135)" style="fill: #7854a2;"/>
    <rect x="167.64" y="109.29" width="48" height="48" rx="4" ry="4" transform="translate(421.4 92.03) rotate(135)" style="fill: #7854a2;"/>
    <rect x="125.21" y="151.72" width="48" height="48" rx="4" ry="4" transform="translate(378.97 194.46) rotate(135)" style="fill: #402666;"/>
  </g>
</svg>