<?xml version="1.0" encoding="UTF-8"?>
<svg id="Layer_1" data-name="Layer 1" xmlns="http://www.w3.org/2000/svg" xmlns:xlink="http://www.w3.org/1999/xlink" viewBox="0 0 932.04 256">
  <defs>
    <clipPath id="clippath">
      <rect x="0" y="0" width="256" height="256" style="fill: none;"/>
    </clipPath>
    <clipPath id="clippath-2">
      <rect x="0" y="0" width="256" height="256" style="fill: none;"/>
    </clipPath>
    <clipPath id="clippath-3">
      <rect x="344.86" y="-34.21" width="1228.55" height="319.93" style="fill: none;"/>
    </clipPath>
    <clipPath id="clippath-4">
      <rect x="344.86" y="-34.21" width="1228.55" height="319.93" style="fill: none;"/>
    </clipPath>
  </defs>
  <g style="clip-path: url(#clippath);">
    <g style="clip-path: url(#clippath-2);">
      <rect x=".75" y=".75" width="254.5" height="254.5" rx="50.25" ry="50.25" style="fill: #fff;"/>
      <path d="M205,1.5c27.29,0,49.5,22.21,49.5,49.5v154c0,27.29-22.21,49.5-49.5,49.5H51c-27.29,0-49.5-22.21-49.5-49.5V51C1.5,23.71,23.71,1.5,51,1.5h154ZM205,0H51C22.83,0,0,22.83,0,51v154C0,233.17,22.83,256,51,256h154c28.17,0,51-22.83,51-51V51C256,22.83,233.17,0,205,0" style="fill: #e9ebef;"/>
      <rect x="47.92" y="92" width="44" height="104" rx="4" ry="4" style="fill: #93e2cb;"/>
      <rect x="107.91" y="60" width="44" height="136" rx="4" ry="4" style="fill: #31a886;"/>
      <rect x="167.91" y="120" width="44" height="76" rx="4" ry="4" style="fill: #237960;"/>
    </g>
  </g>
  <path d="M205.14,3.97c26.04,0,47.23,21.19,47.23,47.23v153.6c0,26.04-21.19,47.23-47.23,47.23H51.54c-26.04,0-47.23-21.19-47.23-47.23V51.2C4.31,25.16,25.5,3.97,51.54,3.97h153.6M205.14,0H51.54C23.26,0,.34,22.92.34,51.2v153.6c0,28.28,22.92,51.2,51.2,51.2h153.6c28.28,0,51.2-22.92,51.2-51.2V51.2C256.34,22.92,233.42,0,205.14,0h0Z" style="fill: #e9eaed;"/>
  <g style="clip-path: url(#clippath-3);">
    <g style="clip-path: url(#clippath-4);">
      <path d="M736.19,137.68l-12.69-7.56c-2.78-1.56-4.95-3.11-6.45-4.61-1.05-1.05-1.58-2.3-1.58-3.73,0-2.29.67-3.71,2.1-4.48,1.68-.89,4.44-1.35,8.21-1.35,4.83,0,11.09.32,19.77,1.02h.45c2.29,0,3.78-1.48,3.78-3.77v-4.22c0-2.16-1.44-3.75-3.77-4.14-6.59-1.12-13.39-1.69-20.23-1.69-3.54,0-6.74.27-9.51.8-2.86.54-5.48,1.51-7.81,2.88-2.44,1.43-4.32,3.46-5.61,6.04-1.23,2.47-1.83,5.38-1.83,8.91,0,4.31,1.2,7.94,3.67,11.1,2.42,3.09,5.74,5.9,10.16,8.58l12.94,7.68c3.51,2.06,5.86,3.76,7.18,5.21,1.13,1.23,1.63,2.47,1.63,4.04,0,2.75-.78,4.62-2.38,5.72-1.73,1.19-4.57,1.77-8.69,1.77-5.28,0-11.61-.44-19.91-1.4h-.69c-1.03,0-1.87.25-2.62.82-.84.63-1.28,1.56-1.28,2.69v4.48c0,.99.39,3.36,3.92,4.12,5.08,1.3,12,1.96,20.59,1.96,7.88,0,13.93-1.61,18.47-4.91,4.68-3.41,7.06-8.53,7.06-15.24,0-4.1-1.21-8-3.49-11.28-2.09-3-5.8-6.08-11.37-9.42" style="fill: #424d60;"/>
      <path d="M616.46,79.36h-8.32c-1.37,0-2.44.16-3.28.5-1.22.49-1.84,1.61-2.27,2.62l-21.11,43.89c-.03.07-.06.12-.08.18-.03-.05-.05-.11-.08-.17l-21.12-43.89c-.44-1.02-1.04-2.13-2.27-2.62-.84-.34-1.91-.5-3.28-.5h-8.32c-1.57,0-2.81.49-3.82,1.49-1,1-1.49,2.25-1.49,3.82v88.81c0,1.15.39,2.08,1.24,2.92.84.84,1.77,1.24,2.92,1.24h6.27c1.15,0,2.08-.39,2.92-1.24.84-.84,1.24-1.77,1.24-2.92v-69.82l15.65,32.39c.56,1.11,1.48,2.61,2.72,3.44,1.11.74,2.74,1.16,4.47,1.16h5.89c1.64,0,3.07-.36,4.38-1.11,1.31-.75,2.13-2.12,2.82-3.5l15.65-32.39v69.82c0,1.15.39,2.08,1.24,2.92.84.84,1.77,1.24,2.92,1.24h6.27c1.15,0,2.08-.39,2.92-1.24.84-.84,1.24-1.77,1.24-2.92v-88.81c0-1.57-.49-2.81-1.49-3.82-1-1-2.25-1.49-3.82-1.49" style="fill: #424d60;"/>
      <path d="M663.32,103.16c-9.63,0-16.88,2.76-22.16,8.44-5.28,5.69-7.85,13.25-7.85,23.1v11.52c0,4.73.54,9.01,1.6,12.73,1.03,3.59,2.58,6.75,4.63,9.37,1.81,2.32,4.09,4.29,6.97,6.02,2.38,1.42,5.04,2.46,8.39,3.25,2.66.63,5.62.94,9.07.94,7.95,0,15.76-.74,23.16-2.2.92-.11,2.23-.39,3.08-1.52.58-.77.83-1.69.83-3.01v-4.35c0-1.12-.47-2.02-1.35-2.61-.78-.52-1.55-.78-2.29-.78h-.75c-6.69.94-14.32,1.41-22.67,1.41-5.48,0-9.61-1.46-12.26-4.35-2.61-2.83-3.93-7.85-3.93-14.91v-.19h41.27c1.3,0,2.39-.5,3.07-1.41.65-.86.96-1.85.96-3.01v-6.91c0-9.9-2.48-17.45-7.58-23.09-5.15-5.69-12.4-8.46-22.17-8.46M680.09,134.71v1.15h-33.91v-1.15c0-13.33,5.77-20.09,17.15-20.09,5.85,0,9.99,1.55,12.67,4.74,2.72,3.23,4.1,8.4,4.1,15.36" style="fill: #424d60;"/>
      <path d="M798.86,166.25h-7.17c-3.19,0-4.1-.76-4.3-.99-.24-.27-1.01-1.47-1.01-5.47v-43.06h12.22c1.15,0,2.08-.39,2.92-1.24.84-.84,1.24-1.77,1.24-2.92v-4.35c0-1.15-.39-2.08-1.24-2.92-.84-.84-1.77-1.24-2.92-1.24h-12.22v-12.35c0-1.02-.38-1.94-1.11-2.67-.48-.48-1.24-1.11-2.41-1.11h-.38l-6.91,1.04c-1.21.2-2.07.68-2.69,1.52-.41.55-.96,1.42-.96,2.62v10.94h-10.81c-1.15,0-2.22.4-2.92,1.11-.74.74-1.11,1.68-1.11,2.79v3.46c0,2.25,1.46,3.71,3.88,3.9l10.97,1.24v43.23c0,3.39.36,6.42,1.08,9,.69,2.49,1.95,4.47,3.84,6.05,1.61,1.34,3.52,2.26,6.01,2.88,2.16.54,4.88.82,8.07.82,2.51,0,5.3-.21,8.56-.66,3.19-.53,3.66-2.58,3.66-3.76v-4.48c0-1.64-1.13-3.39-4.29-3.39" style="fill: #424d60;"/>
      <path d="M902.01,112.16c-5.16-5.97-12.71-9-22.45-9s-17.17,3.03-22.33,9c-5.1,5.9-7.68,13.92-7.68,23.82v9.73c0,9.91,2.59,17.92,7.68,23.83,5.16,5.97,12.67,9,22.33,9s17.3-3.03,22.45-9c5.1-5.9,7.68-13.92,7.68-23.83v-9.73c0-9.91-2.59-17.92-7.68-23.82M862.4,135.99c0-6.75,1.42-12.05,4.22-15.74,2.83-3.74,7.18-5.63,12.93-5.63s10.22,1.89,13.05,5.63c2.8,3.69,4.22,8.99,4.22,15.74v9.73c0,6.75-1.42,12.05-4.22,15.74-2.79,3.68-7.31,5.63-13.05,5.63s-10.09-1.89-12.93-5.63c-2.8-3.69-4.22-8.99-4.22-15.74v-9.73Z" style="fill: #424d60;"/>
      <path d="M841.43,103.16c-5.67,0-11.06,1.57-16.45,4.81-.05-1.04-.45-1.89-1.23-2.67-.74-.74-1.5-1.24-2.79-1.24h-6.01c-1.15,0-2.08.39-2.92,1.24-.98.98-1.11,2.03-1.11,2.92v65.27c0,1.15.39,2.08,1.24,2.92.83.83,1.75,1.24,2.79,1.24h6.27c1.15,0,2.08-.39,2.92-1.24.8-.8,1.24-1.84,1.24-2.92v-52.7c5.47-3.12,10.87-4.69,16.06-4.69,3.16,0,4.29-1.95,4.29-3.78v-5.25c0-2.41-1.64-3.9-4.29-3.9" style="fill: #424d60;"/>
      <path d="M409.51,78.98c-5.71-.54-13.18-.77-35.79-.77-9.46,0-16.69,2.02-21.5,6-4.89,4.05-7.36,10.58-7.36,19.4v49.27c0,8.83,2.48,15.36,7.36,19.4,4.8,3.98,12.04,6,21.5,6h10.72c11.71,0,20.61-.23,25.02-.64,1.29-.03,1.95-1.03,2.16-1.35.43-.65.65-1.34.65-2.04v-6.53c0-.95-.29-1.72-.85-2.28-.54-.54-1.33-.85-2.16-.85h-33.17c-7.36,0-9.66-.48-11.78-1.3-1.93-.75-3.14-1.76-3.72-3.11-.61-1.42-.9-3.75-.9-7.3v-19.9h47.05c1.15,0,2.08-.39,2.92-1.24.84-.84,1.24-1.77,1.24-2.92v-4.86c0-1.15-.39-2.08-1.24-2.92-.84-.84-1.77-1.24-2.92-1.24h-47.05v-16.19c0-3.56.28-5.88.9-7.3.57-1.34,1.79-2.36,3.72-3.11,2.22-.86,5.42-1.3,9.53-1.3h35.42c.83,0,1.61-.31,2.15-.85.57-.57.85-1.33.85-2.28v-6.4c0-.7-.22-1.39-.65-2.04-.22-.33-.88-1.32-2.11-1.35" style="fill: #424d60;"/>
      <path d="M497.1,125.88h-20.07c-1.8,0-4.18,1.18-4.18,4.18s.03,3.11.03,5.41,2.28,3.66,4.15,3.66h9.2v24.53s-7.4,1.31-20.98,1.31c-17.26,0-30.39-8.08-30.39-27.96v-16.88c0-19.26,11.05-28.32,32.31-28.32,15.34,0,28.63,1.54,29.89,1.64.15.02.68.02.68.02.34,0,.65-.03.92-.08,2.18-.4,2.37-2.21,2.37-2.82v-6.43c0-.89-.32-1.64-.87-2.23-.27-.28-.59-.53-.96-.73-.5-.27-1.09-.46-1.73-.56-6.86-1.03-13.28-2.59-31.46-2.59-20.16,0-46.06,7.73-46.06,41.2,0,15.93.03,16.81.03,19.2,0,25.8,19.41,40.16,44.58,40.16,21.16,0,34.2-2.89,34.52-2.98.62-.18,2.08-.68,2.08-3.38v-42.18c0-2.14-1.62-4.18-4.05-4.18" style="fill: #424d60;"/>
    </g>
  </g>
</svg>