<?xml version="1.0" encoding="UTF-8"?>
<svg id="Layer_1" data-name="Layer 1" xmlns="http://www.w3.org/2000/svg" xmlns:xlink="http://www.w3.org/1999/xlink" viewBox="0 0 1081.02 256">
  <defs>
    <clipPath id="clippath">
      <rect x="0" y="0" width="256" height="256" style="fill: none;"/>
    </clipPath>
    <clipPath id="clippath-1">
      <rect x="0" y="0" width="256" height="256" style="fill: none;"/>
    </clipPath>
    <clipPath id="clippath-2">
      <rect x="344.86" y="-34.21" width="1228.55" height="319.93" style="fill: none;"/>
    </clipPath>
    <clipPath id="clippath-3">
      <rect x="344.86" y="-34.21" width="1228.55" height="319.93" style="fill: none;"/>
    </clipPath>
  </defs>
  <g style="clip-path: url(#clippath);">
    <g style="clip-path: url(#clippath-1);">
      <rect x=".75" y=".75" width="254.5" height="254.5" rx="50.45" ry="50.45" style="fill: #fff;"/>
      <path d="M204.8,1.5c27.4,0,49.7,22.29,49.7,49.7v153.6c0,27.4-22.29,49.7-49.7,49.7H51.2c-27.4,0-49.7-22.29-49.7-49.7V51.2C1.5,23.79,23.79,1.5,51.2,1.5h153.6ZM204.8,0H51.2C22.92,0,0,22.92,0,51.2v153.6C0,233.08,22.92,256,51.2,256h153.6c28.28,0,51.2-22.92,51.2-51.2V51.2C256,22.92,233.08,0,204.8,0" style="fill: #e8eaee;"/>
      <path d="M64.08,109.9h78c2.21,0,4,1.79,4,4v78c0,2.21-1.79,4-4,4h-78c-2.21,0-4-1.79-4-4v-78c0-2.21,1.79-4,4-4" style="fill: #a0e1ad;"/>
      <path d="M114.08,80.91h57c2.21,0,4,1.79,4,4v57c0,2.21-1.79,4-4,4h-57c-2.21,0-4-1.79-4-4v-57c0-2.21,1.79-4,4-4" style="fill: #109342;"/>
      <path d="M156.92,60.1h35c2.21,0,4,1.79,4,4v35c0,2.21-1.79,4-4,4h-35c-2.21,0-4-1.79-4-4v-35c0-2.21,1.79-4,4-4" style="fill: #50cd80;"/>
    </g>
  </g>
  <path d="M205.14,3.97c26.04,0,47.23,21.19,47.23,47.23v153.6c0,26.04-21.19,47.23-47.23,47.23H51.54c-26.04,0-47.23-21.19-47.23-47.23V51.2C4.31,25.16,25.5,3.97,51.54,3.97h153.6M205.14,0H51.54C23.26,0,.34,22.92.34,51.2v153.6c0,28.28,22.92,51.2,51.2,51.2h153.6c28.28,0,51.2-22.92,51.2-51.2V51.2C256.34,22.92,233.42,0,205.14,0h0Z" style="fill: #e9e9e9;"/>
  <g style="clip-path: url(#clippath-2);">
    <g style="clip-path: url(#clippath-3);">
      <path d="M577.34,123.86l-11.77-7.03c-5.07-3.04-8.62-5.62-10.53-7.66-1.75-1.86-2.64-4.03-2.64-6.45,0-3.92,1.18-6.57,3.61-8.12,2.54-1.62,7.12-2.44,13.6-2.44,7.15,0,14.31.25,21.95.77h.32c1.02,0,1.94-.38,2.67-1.11.52-.52,1.11-1.27,1.11-2.54v-5.5c0-1.95-1.3-3.35-3.51-3.75-6.84-1.03-14.42-1.56-22.53-1.56-10.17,0-18.14,1.99-23.7,5.92-5.71,4.04-8.48,10.03-8.48,18.33,0,5.29,1.54,9.93,4.57,13.79,3.07,3.9,7.86,7.89,13.87,11.51l12.41,7.55c5.76,3.55,9.74,6.48,11.83,8.69,1.83,1.94,2.76,4.33,2.76,7.09,0,4.32-1.32,7.8-3.83,10.08-2.5,2.27-7.22,3.42-14.02,3.42-8.11,0-15.16-.26-21.04-.77h-.46c-.42,0-1.69,0-2.67.98-.72.73-1.11,1.65-1.11,2.67v5.12c0,1.31.28,2.22.85,2.8.55.55,1.55.92,2.96,1.09,7.97,1.22,14.99,1.81,21.46,1.81,5.02,0,9.52-.54,13.35-1.59,4.1-1.13,7.24-2.51,9.6-4.21,2.52-1.82,4.43-3.78,6.02-6.17,1.64-2.46,2.75-4.96,3.3-7.45.64-2.87.93-5.34.93-7.77,0-5.61-1.62-10.55-4.81-14.67-3.24-4.18-8.49-8.37-16.06-12.81" style="fill: #424d60;"/>
      <path d="M1027.52,116.54c-1.06-3.17-2.84-6.04-5.03-8.09-2.09-1.95-4.49-3.36-7.14-4.19-2.58-.81-5.45-1.23-8.54-1.23-6.54,0-13.56,1.65-20.87,4.92-3.33-3.26-7.76-4.92-13.17-4.92s-11.24,1.63-17.1,4.84c-.08-1.11-.54-1.86-.95-2.4-.68-.91-1.77-1.41-3.07-1.41h-6.4c-1.15,0-2.08.39-2.92,1.24-.98.98-1.11,2.03-1.11,2.92v65.27c0,1.3.51,2.16.96,2.75.68.91,1.68,1.41,2.82,1.41h6.78c1.18,0,2.28-.53,2.94-1.41.62-.83.96-1.8.96-2.75v-53.01c5.98-2.91,10.69-4.39,14.01-4.39,2.96,0,5.03.74,6.34,2.26.72.84,1.92,3.19,1.92,9.58v45.56c0,1.3.51,2.16.96,2.75.68.91,1.68,1.41,2.82,1.41h6.78c1.18,0,2.28-.53,2.94-1.41.62-.82.96-1.8.96-2.75v-45.56c0-3.34-.29-6.36-.86-8.99,5.11-1.89,9.51-2.85,13.08-2.85,3.26,0,5.69.85,7.44,2.6,1.73,1.73,2.6,4.92,2.6,9.49v45.3c0,1.15.39,2.08,1.24,2.92.84.84,1.77,1.24,2.92,1.24h6.14c1.15,0,2.08-.39,2.92-1.24.84-.84,1.24-1.77,1.24-2.92v-45.3c0-4.5-.54-8.42-1.62-11.64" style="fill: #424d60;"/>
      <path d="M829.04,127.18l37.57-42.44c.64-.64.95-1.41.95-2.38,0-1.5-1.05-3.01-3.39-3.01h-9.21c-1.35,0-2.63.56-3.73,1.66l-34.09,39.41v-37.04c0-1.15-.39-2.08-1.24-2.92-.98-.98-2.01-1.11-2.79-1.11h-6.78c-.9,0-1.95.13-2.92,1.11-.74.74-1.11,1.72-1.11,2.92v90.09c0,.9.13,1.95,1.11,2.92.83.83,1.75,1.24,2.79,1.24h7.04c1.18,0,2.28-.53,2.94-1.41.62-.83.96-1.8.96-2.75v-38.15l33.26,40.46c1.05,1.23,2.41,1.85,4.04,1.85h9.98c3.03,0,3.26-2.2,3.26-2.88,0-1.01-.37-1.92-1.08-2.64l-37.57-44.94Z" style="fill: #424d60;"/>
      <path d="M635.1,103.16c-6.75,0-13.51.57-20.08,1.68-3.65.52-4.04,2.98-4.04,4.01v4.48c0,2.28,1.46,3.65,3.9,3.65h.71c7.32-.69,13.7-1.02,19.51-1.02,4.59,0,7.77.91,9.46,2.7,1.75,1.86,2.64,5.28,2.64,10.16v3.52h-7.87c-11.42,0-19.73,1.78-24.72,5.28-5.12,3.6-7.72,9.34-7.72,17.05v1.54c0,4.19.58,7.66,1.78,10.59,1.24,3.04,2.96,5.35,5.26,7.07,2.46,1.84,4.64,2.95,7.08,3.59,2.72.71,5.52,1.08,8.34,1.08,5.7,0,11.64-1.68,18.11-5.14v.08c0,1.15.39,2.08,1.24,2.92.84.84,1.77,1.24,2.92,1.24h5.89c1.15,0,2.08-.39,2.92-1.24.84-.84,1.24-1.77,1.24-2.92v-44.66c0-8.2-2.17-14.6-6.47-19.03-4.32-4.46-10.89-6.63-20.09-6.63M648.8,142v20.6c-6.08,3.35-12.05,5.12-17.28,5.12-3.9,0-6.87-.86-8.83-2.56-1.95-1.69-2.94-4.75-2.94-9.09v-1.54c0-4.58,1.42-7.94,4.1-9.73,2.76-1.84,8.12-2.82,15.48-2.82h9.47Z" style="fill: #424d60;"/>
      <path d="M733.58,105.3c-.73-.58-1.73-1.25-3.05-1.25h-28.03c-4.61,0-8.47.44-11.81,1.33-3.63.98-6.55,2.22-8.68,3.68-2,1.38-3.8,3.17-5.5,5.49-1.57,2.14-2.65,4.36-3.21,6.57-.54,2.17-.82,4.58-.82,7.17v1.02c0,6,1.65,10.79,5.03,14.62-1.27,1.01-2.23,2.15-2.92,3.44-.98,1.81-1.47,3.83-1.47,6.01,0,2.71.51,4.88,1.62,6.81.94,1.64,2.26,3.02,3.87,4.03-1.65,1.59-3.09,3.54-4.28,5.83-1.67,3.21-2.49,6.5-2.49,10.08v1.15c0,6.91,2.67,12.38,7.95,16.26,5.12,3.77,12.89,5.69,23.09,5.69,20.42,0,30.78-7.21,30.78-21.44v-1.02c0-1.84-.29-3.58-.86-5.15-.65-1.8-1.37-3.23-2.14-4.25-.93-1.24-2.09-2.35-3.43-3.29-1.3-.91-2.65-1.86-4.04-2.55-1.19-.6-2.69-1.3-4.82-2.01-.66-.22-1.3-.44-1.9-.65-1.13-.4-2.2-.77-3.18-1.04l-.8-.22c-1.26-.35-2.83-.78-4.62-1.2l-19.04-4.86c-1.4-.38-2.05-.82-2.35-1.12-.23-.23-.43-.5-.43-1.43,0-1.15.54-2,1.66-2.61,4.28,1.63,9.12,2.42,14.79,2.42,19.91,0,30.01-7.9,30.01-23.48v-1.02c0-4.84-1.04-8.9-3.11-12.11l2.05-.4c2.3-.38,3.62-1.84,3.62-4v-3.33c0-1.29-.52-2.39-1.5-3.17M720.8,181.8c0,1.89-.25,3.44-.77,4.74-.51,1.27-1.41,2.44-2.69,3.46-1.19.95-2.89,1.63-5.5,2.17-2.45.52-5.38.77-8.96.77-6.65,0-11.3-.96-14.21-2.94-2.8-1.91-4.22-4.84-4.22-8.7v-1.15c0-3.06.5-5.49,1.54-7.42.99-1.85,2.58-3.74,4.73-5.63l14.46,3.71c6.27,1.6,10.17,2.98,12.28,4.35,2.27,1.47,3.33,3.26,3.33,5.63v1.02ZM716.33,138.67c-1.27,1.15-3.08,2.05-5.37,2.69-2.45.68-5.29,1.02-8.45,1.02-11.63,0-17.28-4.27-17.28-13.05v-1.02c0-1.95.26-3.72.77-5.25.54-1.63,1.34-3.01,2.43-4.22,1.09-1.21,2.9-2.25,5.38-3.07,2.29-.76,5.22-1.15,8.7-1.15,6.5,0,10.9,1.17,13.44,3.58,2.58,2.45,3.84,5.76,3.84,10.11v1.02c0,2.01-.24,3.68-.77,5.25-.53,1.59-1.43,2.97-2.69,4.1" style="fill: #424d60;"/>
      <path d="M900.72,103.16c-9.66,0-17.17,3.03-22.33,9-5.1,5.9-7.68,13.92-7.68,23.82v9.73c0,9.91,2.59,17.92,7.68,23.83,5.16,5.97,12.67,9,22.33,9s17.3-3.03,22.45-9c5.1-5.9,7.68-13.92,7.68-23.83v-9.73c0-9.91-2.59-17.92-7.68-23.82-5.16-5.97-12.71-9-22.45-9M883.57,135.99c0-6.75,1.42-12.05,4.22-15.74,2.83-3.74,7.18-5.63,12.93-5.63s10.22,1.89,13.05,5.63c2.8,3.69,4.22,8.99,4.22,15.74v9.73c0,6.75-1.42,12.05-4.22,15.74-2.79,3.68-7.31,5.63-13.05,5.63s-10.09-1.89-12.93-5.63c-2.8-3.69-4.22-8.99-4.22-15.74v-9.73Z" style="fill: #424d60;"/>
      <path d="M777.13,137.68l-12.69-7.56c-2.78-1.56-4.95-3.11-6.45-4.61-1.05-1.05-1.58-2.3-1.58-3.73,0-2.29.67-3.71,2.1-4.48,1.68-.89,4.44-1.35,8.21-1.35,4.83,0,11.09.32,19.77,1.02h.45c2.29,0,3.78-1.48,3.78-3.77v-4.22c0-2.16-1.44-3.75-3.76-4.14-6.59-1.12-13.4-1.69-20.23-1.69-3.54,0-6.74.27-9.51.8-2.86.54-5.48,1.51-7.81,2.88-2.44,1.43-4.32,3.47-5.61,6.04-1.23,2.47-1.83,5.38-1.83,8.91,0,4.31,1.2,7.94,3.67,11.09,2.42,3.09,5.74,5.9,10.16,8.58l12.94,7.68c3.51,2.06,5.86,3.76,7.18,5.21,1.12,1.23,1.63,2.47,1.63,4.04,0,2.75-.78,4.62-2.38,5.72-1.73,1.19-4.57,1.77-8.69,1.77-5.28,0-11.61-.44-19.91-1.4h-.69c-1.03,0-1.87.25-2.62.82-.84.63-1.28,1.56-1.28,2.69v4.48c0,.99.39,3.36,3.92,4.12,5.08,1.3,12,1.96,20.59,1.96,7.88,0,13.93-1.61,18.47-4.91,4.68-3.41,7.06-8.53,7.06-15.24,0-4.1-1.21-8-3.49-11.28-2.08-3-5.8-6.08-11.37-9.42" style="fill: #424d60;"/>
      <path d="M409.51,78.98c-5.71-.54-13.18-.77-35.79-.77-9.46,0-16.69,2.02-21.5,6-4.89,4.05-7.36,10.58-7.36,19.4v49.27c0,8.83,2.48,15.36,7.36,19.4,4.8,3.98,12.04,6,21.5,6h10.72c11.71,0,20.61-.23,25.02-.64,1.29-.03,1.95-1.03,2.16-1.35.43-.65.65-1.34.65-2.04v-6.53c0-.95-.29-1.72-.85-2.28-.54-.54-1.33-.85-2.16-.85h-33.17c-7.36,0-9.66-.48-11.78-1.3-1.93-.75-3.14-1.76-3.72-3.11-.61-1.42-.9-3.75-.9-7.3v-19.9h47.05c1.15,0,2.08-.39,2.92-1.24.84-.84,1.24-1.77,1.24-2.92v-4.86c0-1.15-.39-2.08-1.24-2.92-.84-.84-1.77-1.24-2.92-1.24h-47.05v-16.19c0-3.56.28-5.88.9-7.3.57-1.34,1.79-2.36,3.72-3.11,2.22-.86,5.42-1.3,9.53-1.3h35.42c.83,0,1.61-.31,2.15-.85.57-.57.85-1.33.85-2.28v-6.4c0-.7-.22-1.39-.65-2.04-.22-.33-.88-1.32-2.11-1.35" style="fill: #424d60;"/>
      <path d="M497.1,125.88h-20.07c-1.8,0-4.18,1.18-4.18,4.18s.03,3.11.03,5.41,2.28,3.66,4.15,3.66h9.2v24.53s-7.4,1.31-20.98,1.31c-17.26,0-30.39-8.08-30.39-27.96v-16.88c0-19.26,11.05-28.32,32.31-28.32,15.34,0,28.63,1.54,29.89,1.64.15.02.68.02.68.02.34,0,.65-.03.92-.08,2.18-.4,2.37-2.21,2.37-2.82v-6.43c0-.89-.32-1.64-.87-2.23-.27-.28-.59-.53-.96-.73-.5-.27-1.09-.46-1.73-.56-6.86-1.03-13.28-2.59-31.46-2.59-20.16,0-46.06,7.73-46.06,41.2,0,15.93.03,16.81.03,19.2,0,25.8,19.41,40.16,44.58,40.16,21.16,0,34.2-2.89,34.52-2.98.62-.18,2.08-.68,2.08-3.38v-42.18c0-2.14-1.62-4.18-4.05-4.18" style="fill: #424d60;"/>
    </g>
  </g>
</svg>