<?xml version="1.0" encoding="UTF-8"?>
<svg id="Layer_1" data-name="Layer 1" xmlns="http://www.w3.org/2000/svg" xmlns:xlink="http://www.w3.org/1999/xlink" viewBox="0 0 892.12 256">
  <defs>
    <clipPath id="clippath">
      <rect x="0" y="0" width="256" height="256" style="fill: none;"/>
    </clipPath>
    <clipPath id="clippath-1">
      <rect x="0" y="0" width="256" height="256" style="fill: none;"/>
    </clipPath>
    <clipPath id="clippath-2">
      <rect x="344.86" y="-34.21" width="1228.55" height="319.93" style="fill: none;"/>
    </clipPath>
    <clipPath id="clippath-3">
      <rect x="344.86" y="-34.21" width="1228.55" height="319.93" style="fill: none;"/>
    </clipPath>
  </defs>
  <g style="clip-path: url(#clippath);">
    <g style="clip-path: url(#clippath-1);">
      <rect x=".75" y=".75" width="254.5" height="254.5" rx="50.45" ry="50.45" style="fill: #fff;"/>
      <path d="M204.8,1.5c27.4,0,49.7,22.29,49.7,49.7v153.6c0,27.4-22.29,49.7-49.7,49.7H51.2c-27.4,0-49.7-22.29-49.7-49.7V51.2C1.5,23.79,23.79,1.5,51.2,1.5h153.6ZM204.8,0H51.2C22.92,0,0,22.92,0,51.2v153.6C0,233.08,22.92,256,51.2,256h153.6c28.28,0,51.2-22.92,51.2-51.2V51.2C256,22.92,233.08,0,204.8,0" style="fill: #e9ebef;"/>
      <path d="M41.15,95l32.68-32.68c1.56-1.56,4.1-1.56,5.66,0l95.02,95.02c1.56,1.56,1.56,4.09,0,5.66l-32.68,32.68c-1.56,1.56-4.09,1.56-5.66,0L41.15,100.66c-1.56-1.56-1.56-4.1,0-5.66" style="fill: #5468ff;"/>
      <path d="M136.35,195.67l-32.68-32.68c-1.56-1.56-1.56-4.1,0-5.66l72.84-72.84c1.56-1.56,4.1-1.56,5.66,0l32.68,32.68c1.56,1.56,1.56,4.1,0,5.66l-72.84,72.84c-1.56,1.56-4.1,1.56-5.66,0" style="fill: #9cabfd;"/>
      <path d="M103.5,157.33l32.68-32.68c1.56-1.56,4.1-1.56,5.66,0l32.68,32.68c1.56,1.56,1.56,4.1,0,5.66l-32.68,32.68c-1.56,1.56-4.1,1.56-5.66,0l-32.68-32.68c-1.56-1.56-1.56-4.1,0-5.66" style="fill: #224fab;"/>
    </g>
  </g>
  <path d="M205.14,3.97c26.04,0,47.23,21.19,47.23,47.23v153.6c0,26.04-21.19,47.23-47.23,47.23H51.54c-26.04,0-47.23-21.19-47.23-47.23V51.2C4.31,25.16,25.5,3.97,51.54,3.97h153.6M205.14,0H51.54C23.26,0,.34,22.92.34,51.2v153.6c0,28.28,22.92,51.2,51.2,51.2h153.6c28.28,0,51.2-22.92,51.2-51.2V51.2C256.34,22.92,233.42,0,205.14,0h0Z" style="fill: #e9e9e9;"/>
  <g style="clip-path: url(#clippath-2);">
    <g style="clip-path: url(#clippath-3);">
      <path d="M608.39,79.36h-7.55c-1.02,0-1.9.34-2.54.98-.56.56-.98,1.32-1.18,2.13l-22.39,81.49c-.21.74-.56,1.52-.89,1.52-.36,0-.46-.1-.52-.16-.08-.1-.23-.41-.5-1.36l-22.26-81.49c-.24-.94-.75-1.73-1.48-2.28-.78-.58-1.49-.83-2.37-.83h-7.42c-1.06,0-2.1.41-2.79,1.11-.72.73-1.11,1.65-1.11,2.67,0,.45,0,.95.25,1.43l23.61,83.08c2,7.13,7.04,10.89,14.59,10.89s12.57-3.67,14.59-10.89l23.48-83.08c.25-.49.25-.99.25-1.43,0-1.02-.38-1.94-1.11-2.67s-1.65-1.11-2.67-1.11" style="fill: #424d60;"/>
      <path d="M632.13,104.06h-6.14c-1.15,0-2.08.39-2.92,1.24s-1.24,1.77-1.24,2.92v65.27c0,1.15.39,2.08,1.24,2.92.84.84,1.77,1.24,2.92,1.24h6.14c1.15,0,2.08-.39,2.92-1.24.84-.84,1.24-1.77,1.24-2.92v-65.27c0-1.15-.39-2.08-1.24-2.92-.84-.84-1.77-1.24-2.92-1.24" style="fill: #424d60;"/>
      <path d="M632.39,77.44h-6.53c-1.15,0-2.08.39-2.92,1.24s-1.24,1.77-1.24,2.92v10.24c0,1.15.39,2.08,1.24,2.92s1.77,1.24,2.92,1.24h6.53c1.15,0,2.08-.39,2.92-1.24s1.24-1.77,1.24-2.92v-10.24c0-1.15-.39-2.08-1.24-2.92-.84-.84-1.77-1.24-2.92-1.24" style="fill: #424d60;"/>
      <path d="M758.27,78.21h-6.65c-1.25,0-2.24.47-2.94,1.41-.41.55-.96,1.42-.96,2.62v91.25c0,.9.13,1.95,1.11,2.92.83.83,1.75,1.24,2.79,1.24h6.65c1.18,0,2.28-.53,2.94-1.41.62-.83.96-1.8.96-2.75v-91.25c0-.9-.13-1.95-1.11-2.92-.98-.98-2.01-1.11-2.79-1.11" style="fill: #424d60;"/>
      <path d="M708.9,105.3c-.73-.58-1.73-1.25-3.05-1.25h-28.03c-4.61,0-8.47.44-11.81,1.33-3.63.98-6.55,2.22-8.68,3.68-2,1.38-3.8,3.17-5.5,5.49-1.57,2.14-2.65,4.36-3.21,6.57-.54,2.16-.82,4.58-.82,7.17v1.02c0,6,1.65,10.79,5.03,14.62-1.26,1.01-2.22,2.15-2.92,3.44-.98,1.81-1.47,3.83-1.47,6.01,0,2.71.51,4.88,1.62,6.81.94,1.64,2.26,3.02,3.87,4.03-1.65,1.59-3.09,3.54-4.28,5.83-1.67,3.21-2.49,6.5-2.49,10.08v1.15c0,6.91,2.67,12.38,7.95,16.26,5.12,3.77,12.89,5.69,23.09,5.69,20.42,0,30.78-7.21,30.78-21.44v-1.02c0-1.84-.29-3.58-.86-5.15-.65-1.8-1.37-3.23-2.14-4.25-.93-1.25-2.09-2.35-3.43-3.29-1.3-.91-2.65-1.86-4.04-2.55-1.19-.6-2.69-1.3-4.82-2.01-.66-.22-1.3-.44-1.9-.65-1.08-.38-2.2-.77-3.18-1.04l-.8-.22c-1.26-.35-2.83-.78-4.62-1.2l-19.04-4.86c-1.4-.38-2.05-.82-2.35-1.12-.23-.22-.43-.5-.43-1.43,0-1.15.54-2,1.66-2.61,4.28,1.63,9.12,2.42,14.79,2.42,19.91,0,30.01-7.9,30.01-23.48v-1.02c0-4.84-1.04-8.9-3.11-12.11l2.05-.4c2.3-.38,3.62-1.84,3.62-4v-3.33c0-1.29-.52-2.39-1.5-3.17M696.13,181.8c0,1.89-.25,3.44-.77,4.74-.51,1.27-1.41,2.44-2.69,3.46-1.19.96-2.89,1.63-5.5,2.18-2.45.52-5.38.77-8.96.77-6.65,0-11.3-.96-14.21-2.94-2.8-1.91-4.22-4.84-4.22-8.7v-1.15c0-3.06.5-5.49,1.54-7.42.99-1.85,2.58-3.74,4.74-5.63l14.46,3.71c6.27,1.6,10.17,2.98,12.28,4.35,2.27,1.47,3.33,3.26,3.33,5.63v1.02ZM691.65,138.67c-1.27,1.15-3.08,2.05-5.37,2.69-2.45.68-5.29,1.02-8.45,1.02-11.63,0-17.28-4.27-17.28-13.05v-1.02c0-1.95.26-3.72.77-5.25.54-1.63,1.34-3.01,2.43-4.22,1.09-1.21,2.9-2.25,5.38-3.07,2.29-.76,5.22-1.15,8.7-1.15,6.5,0,10.9,1.17,13.44,3.58,2.58,2.45,3.84,5.76,3.84,10.11v1.02c0,2.01-.24,3.67-.77,5.25-.53,1.59-1.43,2.97-2.69,4.1" style="fill: #424d60;"/>
      <path d="M730.07,77.44h-6.53c-1.15,0-2.08.39-2.92,1.24s-1.24,1.77-1.24,2.92v10.24c0,1.15.39,2.08,1.24,2.92s1.77,1.24,2.92,1.24h6.53c1.15,0,2.08-.39,2.92-1.24s1.24-1.77,1.24-2.92v-10.24c0-1.15-.39-2.08-1.24-2.92s-1.77-1.24-2.92-1.24" style="fill: #424d60;"/>
      <path d="M825.44,112.16c-5.16-5.97-12.71-9-22.45-9s-17.17,3.03-22.33,9c-5.1,5.9-7.68,13.92-7.68,23.82v9.73c0,9.91,2.59,17.92,7.68,23.83,5.16,5.97,12.67,9,22.33,9s17.3-3.03,22.45-9c5.1-5.9,7.68-13.92,7.68-23.83v-9.73c0-9.91-2.59-17.92-7.68-23.82M785.84,135.99c0-6.75,1.42-12.05,4.22-15.74,2.83-3.74,7.18-5.63,12.92-5.63s10.22,1.89,13.05,5.63c2.8,3.69,4.22,8.99,4.22,15.74v9.73c0,6.75-1.42,12.05-4.22,15.74-2.79,3.68-7.31,5.63-13.05,5.63s-10.09-1.89-12.92-5.63c-2.8-3.69-4.22-8.99-4.22-15.74v-9.73Z" style="fill: #424d60;"/>
      <path d="M729.81,104.06h-6.14c-1.15,0-2.08.39-2.92,1.24-.84.84-1.24,1.77-1.24,2.92v65.27c0,1.15.39,2.08,1.24,2.92.84.84,1.77,1.24,2.92,1.24h6.14c1.15,0,2.08-.39,2.92-1.24.84-.84,1.24-1.77,1.24-2.92v-65.27c0-1.15-.39-2.08-1.24-2.92s-1.77-1.24-2.92-1.24" style="fill: #424d60;"/>
      <path d="M409.51,78.98c-5.71-.54-13.18-.77-35.79-.77-9.46,0-16.69,2.02-21.5,6-4.89,4.05-7.36,10.58-7.36,19.4v49.27c0,8.83,2.48,15.36,7.36,19.4,4.8,3.98,12.04,6,21.5,6h10.72c11.71,0,20.61-.23,25.02-.64,1.29-.03,1.95-1.03,2.16-1.35.43-.65.65-1.34.65-2.04v-6.53c0-.95-.29-1.72-.85-2.28-.54-.54-1.33-.85-2.16-.85h-33.17c-7.36,0-9.66-.48-11.78-1.3-1.93-.75-3.14-1.76-3.72-3.11-.61-1.42-.9-3.75-.9-7.3v-19.9h47.05c1.15,0,2.08-.39,2.92-1.24.84-.84,1.24-1.77,1.24-2.92v-4.86c0-1.15-.39-2.08-1.24-2.92-.84-.84-1.77-1.24-2.92-1.24h-47.05v-16.19c0-3.56.28-5.88.9-7.3.57-1.34,1.79-2.36,3.72-3.11,2.22-.86,5.42-1.3,9.53-1.3h35.42c.83,0,1.61-.31,2.15-.85.57-.57.85-1.33.85-2.28v-6.4c0-.7-.22-1.39-.65-2.04-.22-.33-.88-1.32-2.11-1.35" style="fill: #424d60;"/>
      <path d="M497.1,125.88h-20.07c-1.8,0-4.18,1.18-4.18,4.18s.03,3.11.03,5.41,2.28,3.66,4.15,3.66h9.2v24.53s-7.4,1.31-20.98,1.31c-17.26,0-30.39-8.08-30.39-27.96v-16.88c0-19.26,11.05-28.32,32.31-28.32,15.34,0,28.63,1.54,29.89,1.64.15.02.68.02.68.02.34,0,.65-.03.92-.08,2.18-.4,2.37-2.21,2.37-2.82v-6.43c0-.89-.32-1.64-.87-2.23-.27-.28-.59-.53-.96-.73-.5-.27-1.09-.46-1.73-.56-6.86-1.03-13.28-2.59-31.46-2.59-20.16,0-46.06,7.73-46.06,41.2,0,15.93.03,16.81.03,19.2,0,25.8,19.41,40.16,44.58,40.16,21.16,0,34.2-2.89,34.52-2.98.62-.18,2.08-.68,2.08-3.38v-42.18c0-2.14-1.62-4.18-4.05-4.18" style="fill: #424d60;"/>
    </g>
  </g>
</svg>