<?xml version="1.0" encoding="UTF-8"?>
<svg id="Layer_1" data-name="Layer 1" xmlns="http://www.w3.org/2000/svg" xmlns:xlink="http://www.w3.org/1999/xlink" viewBox="0 0 256 256">
  <defs>
    <clipPath id="clippath">
      <rect x="0" y="0" width="256" height="256" style="fill: none;"/>
    </clipPath>
    <clipPath id="clippath-1">
      <rect x="0" y="0" width="256" height="256" style="fill: none;"/>
    </clipPath>
  </defs>
  <g style="clip-path: url(#clippath);">
    <g style="clip-path: url(#clippath-1);">
      <rect x=".75" y=".75" width="254.5" height="254.5" rx="50.45" ry="50.45" style="fill: #fff;"/>
      <path d="M204.8,1.5c27.4,0,49.7,22.29,49.7,49.7v153.6c0,27.4-22.29,49.7-49.7,49.7H51.2c-27.4,0-49.7-22.29-49.7-49.7V51.2C1.5,23.79,23.79,1.5,51.2,1.5h153.6ZM204.8,0H51.2C22.92,0,0,22.92,0,51.2v153.6C0,233.08,22.92,256,51.2,256h153.6c28.28,0,51.2-22.92,51.2-51.2V51.2C256,22.92,233.08,0,204.8,0" style="fill: #e9ebef;"/>
      <path d="M121.83,102.13h-45.14c-2.21,0-4-1.79-4-4v-45.14c0-2.21,1.79-4,4-4h45.14c2.21,0,4,1.79,4,4v45.14c0,2.21-1.79,4-4,4" style="fill: #cf2371;"/>
      <path d="M179.31,147.68h-37.55c-2.21,0-4-1.79-4-4v-37.55c0-2.21,1.79-4,4-4h37.55c2.21,0,4,1.79,4,4v37.55c0,2.21-1.79,4-4,4" style="fill: #db6099;"/>
      <path d="M164.12,216h-22.37c-2.21,0-4-1.79-4-4v-22.36c0-2.21,1.79-4,4-4h22.37c2.21,0,4,1.79,4,4v22.36c0,2.21-1.79,4-4,4" style="fill: #cf2371;"/>
      <path d="M121.83,185.63h-29.96c-2.21,0-4-1.79-4-4v-29.96c0-2.21,1.79-4,4-4h29.96c2.21,0,4,1.79,4,4v29.96c0,2.21-1.79,4-4,4" style="fill: #ef88bf;"/>
    </g>
  </g>
  <path d="M204.8,3.97c26.04,0,47.23,21.19,47.23,47.23v153.6c0,26.04-21.19,47.23-47.23,47.23H51.2c-26.04,0-47.23-21.19-47.23-47.23V51.2C3.97,25.16,25.16,3.97,51.2,3.97h153.6M204.8,0H51.2C22.92,0,0,22.92,0,51.2v153.6c0,28.28,22.92,51.2,51.2,51.2h153.6c28.28,0,51.2-22.92,51.2-51.2V51.2C256,22.92,233.08,0,204.8,0h0Z" style="fill: #e9e9e9;"/>
</svg>