<?xml version="1.0" encoding="UTF-8"?>
<svg id="Layer_1" data-name="Layer 1" xmlns="http://www.w3.org/2000/svg" xmlns:xlink="http://www.w3.org/1999/xlink" viewBox="0 0 1016.3 256">
  <defs>
    <clipPath id="clippath">
      <rect x="0" y="0" width="256" height="256" style="fill: none;"/>
    </clipPath>
    <clipPath id="clippath-1">
      <rect x="0" y="0" width="256" height="256" style="fill: none;"/>
    </clipPath>
    <clipPath id="clippath-2">
      <rect x="344.86" y="-34.21" width="1228.55" height="319.93" style="fill: none;"/>
    </clipPath>
    <clipPath id="clippath-3">
      <rect x="344.86" y="-34.21" width="1228.55" height="319.93" style="fill: none;"/>
    </clipPath>
  </defs>
  <g style="clip-path: url(#clippath);">
    <g style="clip-path: url(#clippath-1);">
      <rect x=".75" y=".75" width="254.5" height="254.5" rx="50.45" ry="50.45" style="fill: #fff;"/>
      <path d="M204.8,1.5c27.4,0,49.7,22.29,49.7,49.7v153.6c0,27.4-22.29,49.7-49.7,49.7H51.2c-27.4,0-49.7-22.29-49.7-49.7V51.2C1.5,23.79,23.79,1.5,51.2,1.5h153.6ZM204.8,0H51.2C22.92,0,0,22.92,0,51.2v153.6C0,233.08,22.92,256,51.2,256h153.6c28.28,0,51.2-22.92,51.2-51.2V51.2C256,22.92,233.08,0,204.8,0" style="fill: #e9ebef;"/>
      <path d="M121.83,102.13h-45.14c-2.21,0-4-1.79-4-4v-45.14c0-2.21,1.79-4,4-4h45.14c2.21,0,4,1.79,4,4v45.14c0,2.21-1.79,4-4,4" style="fill: #cf2371;"/>
      <path d="M179.31,147.68h-37.55c-2.21,0-4-1.79-4-4v-37.55c0-2.21,1.79-4,4-4h37.55c2.21,0,4,1.79,4,4v37.55c0,2.21-1.79,4-4,4" style="fill: #db6099;"/>
      <path d="M164.12,216h-22.37c-2.21,0-4-1.79-4-4v-22.36c0-2.21,1.79-4,4-4h22.37c2.21,0,4,1.79,4,4v22.36c0,2.21-1.79,4-4,4" style="fill: #cf2371;"/>
      <path d="M121.83,185.63h-29.96c-2.21,0-4-1.79-4-4v-29.96c0-2.21,1.79-4,4-4h29.96c2.21,0,4,1.79,4,4v29.96c0,2.21-1.79,4-4,4" style="fill: #ef88bf;"/>
    </g>
  </g>
  <path d="M205.14,3.97c26.04,0,47.23,21.19,47.23,47.23v153.6c0,26.04-21.19,47.23-47.23,47.23H51.54c-26.04,0-47.23-21.19-47.23-47.23V51.2C4.31,25.16,25.5,3.97,51.54,3.97h153.6M205.14,0H51.54C23.26,0,.34,22.92.34,51.2v153.6c0,28.28,22.92,51.2,51.2,51.2h153.6c28.28,0,51.2-22.92,51.2-51.2V51.2C256.34,22.92,233.42,0,205.14,0h0Z" style="fill: #e9e9e9;"/>
  <g style="clip-path: url(#clippath-2);">
    <g style="clip-path: url(#clippath-3);">
      <path d="M710.5,103.16c-3.74,0-7.34.5-10.69,1.47-2.42.71-5.01,1.78-8.07,3.35-.06-1.18-.53-1.96-.95-2.52-.68-.91-1.77-1.41-3.07-1.41h-6.4c-1.15,0-2.08.39-2.92,1.24-.98.98-1.11,2.03-1.11,2.92v65.27c0,1.15.39,2.08,1.24,2.92.83.83,1.75,1.24,2.79,1.24h6.27c1.15,0,2.08-.39,2.92-1.24.8-.8,1.24-1.84,1.24-2.92v-53.01c6.03-2.91,11.3-4.39,15.68-4.39s7.67,1.07,9.56,3.18c1.91,2.14,2.92,6.32,2.92,12.11v42.1c0,1.15.39,2.08,1.24,2.92.84.84,1.77,1.24,2.92,1.24h6.14c1.15,0,2.08-.39,2.92-1.24.84-.84,1.24-1.77,1.24-2.92v-42.1c0-18.72-8.03-28.22-23.87-28.22" style="fill: #424d60;"/>
      <path d="M602.44,164.78c-.78-.58-1.6-.83-2.75-.83h-45.13l45.31-66.12c1.51-2.42,2.31-5.33,2.31-8.43,0-3.8-1.09-6.48-3.25-7.97-1.99-1.38-5.1-2.08-9.23-2.08h-45.56c-1.3,0-2.16.51-2.75.96-.91.68-1.41,1.68-1.41,2.81v6.02c0,1.13.5,2.13,1.41,2.82.82.62,1.8.96,2.75.96h41.66l-45.42,66.1c-1.48,2.22-2.19,4.94-2.19,8.32,0,4.09.92,6.77,2.82,8.19,1.87,1.4,5.03,2.11,9.41,2.11h49.27c.9,0,1.95-.13,2.92-1.11.83-.83,1.24-1.75,1.24-2.79v-6.01c0-1.25-.47-2.24-1.41-2.94" style="fill: #424d60;"/>
      <path d="M665.01,104.06h-7.17c-.82,0-1.63.31-2.5.96-.79.6-1.27,1.29-1.48,2.16l-15.29,57.28h-.82c-.19,0-.27-.03-.28-.04,0,0-.34-.36-.6-1.56l-15.11-55.56c-.2-.82-.62-1.57-1.19-2.14-.7-.7-1.63-1.11-2.54-1.11h-7.04c-2.37,0-3.9,1.48-3.9,3.78,0,.55,0,1.08.26,1.57l16.95,58.24c.53,2,1.22,3.67,2.09,5.13.93,1.55,1.7,2.58,2.88,3.25l.42.25c.79.46,1.61.94,2.54,1.1,1.01.17,1.96.26,2.83.28l-.8,3.28c-.93,3.97-2.2,6.67-3.66,7.82-1.55,1.22-4.06,1.83-7.46,1.83-1.88,0-5.77-.26-11.25-.76h-.53c-2.56,0-4.03,1.32-4.03,3.64v4.74c0,.83.39,2.85,3.95,3.61,3.55.79,7.28,1.19,11.09,1.19,5.19,0,9.41-.69,12.54-2.05,3.15-1.37,5.71-3.55,7.61-6.48,1.74-2.68,3.36-6.57,4.8-11.56l21.05-73.49c.25-.49.25-1.01.25-1.56,0-.42,0-1.69-.98-2.67-.72-.72-1.65-1.11-2.67-1.11" style="fill: #424d60;"/>
      <path d="M774.55,103.16c-9.63,0-16.88,2.76-22.16,8.44-5.28,5.69-7.85,13.25-7.85,23.1v11.52c0,4.73.54,9.02,1.6,12.73,1.03,3.59,2.58,6.75,4.63,9.37,1.81,2.32,4.08,4.29,6.97,6.02,2.37,1.42,5.04,2.46,8.39,3.25,2.66.63,5.62.94,9.07.94,7.95,0,15.76-.74,23.16-2.2.92-.11,2.23-.39,3.08-1.52.58-.77.83-1.69.83-3.01v-4.35c0-1.12-.47-2.02-1.35-2.61-.78-.52-1.55-.78-2.3-.78h-.75c-6.69.94-14.32,1.41-22.67,1.41-5.48,0-9.61-1.46-12.26-4.35-2.61-2.83-3.93-7.85-3.93-14.91v-.19h41.27c1.3,0,2.39-.5,3.07-1.41.65-.86.96-1.84.96-3.01v-6.91c0-9.9-2.48-17.45-7.58-23.09-5.15-5.69-12.4-8.46-22.17-8.46M791.32,134.71v1.15h-33.91v-1.15c0-13.33,5.77-20.09,17.15-20.09,5.85,0,9.99,1.55,12.67,4.74,2.72,3.23,4.09,8.4,4.09,15.36" style="fill: #424d60;"/>
      <path d="M984.25,105.16c-.72-.73-1.65-1.11-2.67-1.11h-7.17c-.82,0-1.63.31-2.5.96-.79.6-1.27,1.28-1.49,2.16l-15.29,57.28h-.82c-.21,0-.28-.04-.28-.04,0,0-.33-.36-.6-1.56l-15.11-55.56c-.2-.82-.62-1.57-1.18-2.14-.71-.7-1.63-1.11-2.54-1.11h-7.04c-2.37,0-3.9,1.48-3.9,3.78,0,.55,0,1.08.26,1.57l16.95,58.24c.53,2,1.22,3.67,2.09,5.13.93,1.55,1.7,2.58,2.88,3.25l.42.25c.79.46,1.61.94,2.54,1.1,1.01.17,1.96.26,2.83.28l-.8,3.28c-.93,3.97-2.2,6.67-3.66,7.82-1.55,1.22-4.06,1.83-7.46,1.83-1.88,0-5.77-.26-11.25-.76h-.53c-2.56,0-4.03,1.32-4.03,3.64v4.74c0,.83.39,2.85,3.95,3.61,3.55.79,7.28,1.19,11.09,1.19,5.19,0,9.41-.69,12.54-2.05,3.15-1.37,5.71-3.55,7.61-6.48,1.74-2.68,3.36-6.57,4.8-11.56l21.05-73.49c.25-.49.25-1.01.25-1.56,0-.42,0-1.69-.98-2.67" style="fill: #424d60;"/>
      <path d="M844.7,103.16c-5.67,0-11.06,1.57-16.45,4.81-.05-1.04-.45-1.89-1.23-2.67-.74-.74-1.5-1.24-2.79-1.24h-6.01c-1.15,0-2.08.39-2.92,1.24-.98.98-1.11,2.03-1.11,2.92v65.27c0,1.15.39,2.08,1.24,2.92.83.83,1.75,1.24,2.79,1.24h6.27c1.15,0,2.08-.39,2.92-1.24.8-.8,1.24-1.84,1.24-2.92v-52.7c5.47-3.12,10.87-4.69,16.06-4.69,3.16,0,4.29-1.95,4.29-3.78v-5.25c0-2.41-1.64-3.9-4.29-3.9" style="fill: #424d60;"/>
      <path d="M915.39,105.3c-.73-.58-1.73-1.25-3.05-1.25h-28.03c-4.61,0-8.47.44-11.81,1.33-3.63.98-6.55,2.22-8.68,3.68-2,1.38-3.8,3.17-5.5,5.49-1.57,2.14-2.65,4.36-3.21,6.57-.54,2.16-.82,4.58-.82,7.17v1.02c0,6,1.65,10.79,5.03,14.62-1.26,1.01-2.22,2.15-2.92,3.44-.98,1.81-1.47,3.83-1.47,6.01,0,2.71.51,4.88,1.62,6.81.94,1.64,2.26,3.02,3.87,4.03-1.65,1.59-3.09,3.54-4.28,5.83-1.67,3.21-2.49,6.5-2.49,10.08v1.15c0,6.9,2.67,12.38,7.95,16.26,5.12,3.77,12.89,5.69,23.09,5.69,20.42,0,30.78-7.21,30.78-21.44v-1.02c0-1.84-.29-3.58-.86-5.15-.65-1.8-1.37-3.23-2.14-4.25-.93-1.25-2.09-2.35-3.43-3.29-1.31-.91-2.66-1.86-4.04-2.55-1.19-.6-2.69-1.3-4.82-2.01-.66-.22-1.29-.44-1.9-.65-1.08-.38-2.2-.77-3.18-1.04l-.77-.21c-1.26-.35-2.84-.78-4.65-1.21l-19.04-4.86c-1.4-.38-2.05-.82-2.35-1.12-.23-.22-.43-.5-.43-1.43,0-1.15.54-2,1.66-2.61,4.28,1.63,9.12,2.42,14.79,2.42,19.91,0,30.01-7.9,30.01-23.48v-1.02c0-4.84-1.05-8.9-3.11-12.11l2.05-.4c2.3-.38,3.62-1.84,3.62-4v-3.33c0-1.29-.52-2.39-1.5-3.17M866.27,180.14c0-3.06.5-5.49,1.54-7.42.99-1.85,2.58-3.74,4.73-5.63l14.46,3.71c6.27,1.6,10.17,2.98,12.28,4.35,2.27,1.47,3.33,3.26,3.33,5.63v1.02c0,1.89-.25,3.44-.77,4.74-.51,1.27-1.41,2.44-2.69,3.45-1.19.96-2.89,1.63-5.5,2.18-2.45.52-5.38.77-8.96.77-6.65,0-11.3-.96-14.2-2.94-2.8-1.91-4.22-4.84-4.22-8.7v-1.15ZM898.14,138.67c-1.27,1.15-3.08,2.05-5.37,2.69-2.45.68-5.29,1.02-8.45,1.02-11.63,0-17.28-4.27-17.28-13.05v-1.02c0-1.95.26-3.72.77-5.25.54-1.63,1.34-3.01,2.43-4.22,1.09-1.21,2.9-2.25,5.37-3.07,2.29-.76,5.22-1.15,8.7-1.15,6.5,0,10.9,1.17,13.44,3.58,2.58,2.45,3.84,5.76,3.84,10.11v1.02c0,2.01-.24,3.67-.77,5.25-.53,1.59-1.43,2.97-2.69,4.1" style="fill: #424d60;"/>
      <path d="M409.51,78.98c-5.71-.54-13.18-.77-35.79-.77-9.46,0-16.69,2.02-21.5,6-4.89,4.05-7.36,10.58-7.36,19.4v49.27c0,8.83,2.48,15.36,7.36,19.4,4.8,3.98,12.04,6,21.5,6h10.72c11.71,0,20.61-.23,25.02-.64,1.29-.03,1.95-1.03,2.16-1.35.43-.65.65-1.34.65-2.04v-6.53c0-.95-.29-1.72-.85-2.28-.54-.54-1.33-.85-2.16-.85h-33.17c-7.36,0-9.66-.48-11.78-1.3-1.93-.75-3.14-1.76-3.72-3.11-.61-1.42-.9-3.75-.9-7.3v-19.9h47.05c1.15,0,2.08-.39,2.92-1.24.84-.84,1.24-1.77,1.24-2.92v-4.86c0-1.15-.39-2.08-1.24-2.92-.84-.84-1.77-1.24-2.92-1.24h-47.05v-16.19c0-3.56.28-5.88.9-7.3.57-1.34,1.79-2.36,3.72-3.11,2.22-.86,5.42-1.3,9.53-1.3h35.42c.83,0,1.61-.31,2.15-.85.57-.57.85-1.33.85-2.28v-6.4c0-.7-.22-1.39-.65-2.04-.22-.33-.88-1.32-2.11-1.35" style="fill: #424d60;"/>
      <path d="M497.1,125.88h-20.07c-1.8,0-4.18,1.18-4.18,4.18s.03,3.11.03,5.41,2.28,3.66,4.15,3.66h9.2v24.53s-7.4,1.31-20.98,1.31c-17.26,0-30.39-8.08-30.39-27.96v-16.88c0-19.26,11.05-28.32,32.31-28.32,15.34,0,28.63,1.54,29.89,1.64.15.02.68.02.68.02.34,0,.65-.03.92-.08,2.18-.4,2.37-2.21,2.37-2.82v-6.43c0-.89-.32-1.64-.87-2.23-.27-.28-.59-.53-.96-.73-.5-.27-1.09-.46-1.73-.56-6.86-1.03-13.28-2.59-31.46-2.59-20.16,0-46.06,7.73-46.06,41.2,0,15.93.03,16.81.03,19.2,0,25.8,19.41,40.16,44.58,40.16,21.16,0,34.2-2.89,34.52-2.98.62-.18,2.08-.68,2.08-3.38v-42.18c0-2.14-1.62-4.18-4.05-4.18" style="fill: #424d60;"/>
    </g>
  </g>
</svg>